<?xml version="1.0" encoding="utf-8"?>
<!-- Generator: Adobe Illustrator 27.5.0, SVG Export Plug-In . SVG Version: 6.00 Build 0)  -->
<svg version="1.1" xmlns="http://www.w3.org/2000/svg" xmlns:xlink="http://www.w3.org/1999/xlink" x="0px" y="0px"
	 viewBox="0 0 500 500" style="enable-background:new 0 0 500 500;" xml:space="preserve">
<g id="BACKGROUND">
	<rect y="0.397" style="fill:#F3F0F5;" width="500" height="500"/>
</g>
<g id="OBJECTS">
	<g style="opacity:0.5;">
		<path style="fill:#E0D8EA;" d="M407.162,267.947H92.838V63.875h314.324V267.947z M79.651,50.904v230.014h340.698V50.904H79.651z"
			/>
		
			<line style="fill:none;stroke:#D5CCE2;stroke-width:5.0558;stroke-miterlimit:10;" x1="92.622" y1="131.899" x2="407.378" y2="131.899"/>
		
			<line style="fill:none;stroke:#D5CCE2;stroke-width:5.0558;stroke-miterlimit:10;" x1="92.622" y1="199.923" x2="407.378" y2="199.923"/>
		
			<line style="fill:none;stroke:#D5CCE2;stroke-width:5.0558;stroke-miterlimit:10;" x1="166.417" y1="267.947" x2="166.417" y2="63.875"/>
		
			<line style="fill:none;stroke:#D5CCE2;stroke-width:5.0558;stroke-miterlimit:10;" x1="250.108" y1="267.947" x2="250.108" y2="63.875"/>
		
			<line style="fill:none;stroke:#D5CCE2;stroke-width:5.0558;stroke-miterlimit:10;" x1="333.799" y1="267.947" x2="333.799" y2="63.875"/>
	</g>
	<rect y="437.116" style="fill:#D5CCE2;" width="500" height="62.884"/>
	<g>
		<g>
			<rect x="206.231" y="432.261" style="fill:#BFB6CE;" width="6.765" height="9.709"/>
			<path style="fill:#E0D8EA;" d="M210.478,354.395v34.741h117.199v-34.741c0-32.364-26.236-58.599-58.599-58.599h0
				C236.714,295.796,210.478,322.032,210.478,354.395z"/>
			<rect x="324.295" y="432.261" style="fill:#BFB6CE;" width="6.765" height="9.709"/>
			<path style="fill:#D5CCE2;" d="M310.935,352.533v36.604h-83.714v-36.604c0-4.131-3.349-7.48-7.48-7.48h-15.82
				c-4.131,0-7.48,3.349-7.48,7.48v36.604v37.111c0,3.321,2.693,6.014,6.014,6.014h24.765h83.714H335.7
				c3.321,0,6.014-2.693,6.014-6.014v-37.111v-36.604c0-4.131-3.349-7.48-7.48-7.48h-15.82
				C314.283,345.053,310.935,348.402,310.935,352.533z"/>
		</g>
		<g>
			<path style="fill:#D5CCE2;" d="M387.87,339.286c-24.834,40.595-5.97,57.788-5.97,57.788h5.97h5.97
				C393.84,397.074,412.705,379.881,387.87,339.286z"/>
			<path style="fill:#D5CCE2;" d="M418.253,361.651c-32.375,16.215-27.115,34.909-27.115,34.909l3.855,2.403l3.855,2.403
				C398.846,401.366,417.947,397.858,418.253,361.651z"/>
			<path style="fill:#D5CCE2;" d="M361.807,369.431c8.058,35.301,27.467,34.633,27.467,34.633l3.25-3.173l3.25-3.173
				C395.775,397.717,396.905,378.33,361.807,369.431z"/>
			<polygon style="fill:#E0D8EA;" points="407.305,441.97 371.206,441.97 358.162,397.074 420.349,397.074 			"/>
		</g>
		<g>
			<path style="fill:#D5CCE2;" d="M458.441,401.653c-4.202-7.503,2.001-17.51-2.301-23.613c-4.302-6.103-14.107-8.204-19.51,0
				c-5.403,8.204,1,14.607-2.701,23.111c-3.702,8.504,2.701,14.207,2.701,14.207h20.91
				C457.541,415.359,462.643,409.156,458.441,401.653z"/>
			<polygon style="fill:#E0D8EA;" points="458.149,441.97 434.729,441.97 426.266,412.842 466.612,412.842 			"/>
		</g>
	</g>
	<g>
		<g>
			<defs>
				<path id="SVGID_1_" d="M398.483,60.179c-53.931,51.552-65.354,9.517-119.125,6.345c-53.771-3.172-68.89,45.843-68.89,45.843
					v13.036c0,0,39.412,2.938,58.522,44.426c19.11,41.488,35.114,82.863,101.735,69.089c66.62-13.774,30.931,99.589,129.276,99.589
					c0-120.5,0-320.362,0-320.362S452.414,8.627,398.483,60.179z"/>
			</defs>
			<use xlink:href="#SVGID_1_"  style="overflow:visible;fill:#5577C1;"/>
			<clipPath id="SVGID_00000095337750499134665890000010822108750379420830_">
				<use xlink:href="#SVGID_1_"  style="overflow:visible;"/>
			</clipPath>
			<g style="clip-path:url(#SVGID_00000095337750499134665890000010822108750379420830_);">
				<polygon style="fill:#668DD3;" points="489.471,126.662 489.471,80.651 456.377,80.651 456.377,112.367 430.152,112.367 
					430.152,81.275 405.175,81.275 405.175,141.603 375.28,141.603 375.28,105.628 343.378,105.628 343.378,129.689 
					324.032,129.689 324.032,95.521 292.129,95.521 292.129,139.302 270.038,139.302 270.038,106.068 244.39,106.068 
					244.39,126.662 208.425,126.662 208.425,217.598 502.043,217.598 502.043,126.662 				"/>
				<g>
					<path style="fill:#56C7AB;" d="M418.36,160.742v74.146H209.153v-90.199C278.889,139.218,348.624,144.557,418.36,160.742z"/>
				</g>
				<g>
					<path style="fill:#4ABC99;" d="M336.004,173.563v74.146h186.959V157.51C460.643,152.039,398.324,157.378,336.004,173.563z"/>
				</g>
				<path style="fill:#35A887;" d="M522.963,185.334c-104.235-24.192-208.47-24.192-312.706,0v74.146h312.706V185.334z"/>
				<rect x="210.257" y="205.146" style="fill:#56C7AB;" width="312.706" height="93.051"/>
				<rect x="216.448" y="221.005" style="fill:#809BAC;" width="312.706" height="117.215"/>
				<rect x="216.448" y="232.002" style="fill:#9AB1BF;" width="312.706" height="117.215"/>
				<g>
					<path style="fill:#35A887;" d="M415.927,129.121c0,19.787,11.066,24.452,24.716,24.452c13.65,0,24.716-4.665,24.716-24.452
						c0-19.787-11.066-47.203-24.716-47.203C426.993,81.918,415.927,109.334,415.927,129.121z"/>
					<g>
						
							<line style="fill:none;stroke:#142544;stroke-width:1.4216;stroke-miterlimit:10;" x1="440.768" y1="99.732" x2="440.768" y2="177.523"/>
						
							<line style="fill:none;stroke:#142544;stroke-width:1.4216;stroke-miterlimit:10;" x1="426.713" y1="129.121" x2="440.519" y2="142.927"/>
						
							<line style="fill:none;stroke:#142544;stroke-width:1.4216;stroke-miterlimit:10;" x1="454.573" y1="112.024" x2="440.768" y2="125.83"/>
					</g>
				</g>
				<g>
					<path style="fill:#56C7AB;" d="M458.76,145.069c0,19.787,11.066,24.452,24.716,24.452c13.651,0,24.716-4.665,24.716-24.452
						s-11.066-47.203-24.716-47.203C469.826,97.867,458.76,125.282,458.76,145.069z"/>
					<g>
						
							<line style="fill:none;stroke:#142544;stroke-width:1.4216;stroke-miterlimit:10;" x1="483.601" y1="115.681" x2="483.601" y2="193.471"/>
						
							<line style="fill:none;stroke:#142544;stroke-width:1.4216;stroke-miterlimit:10;" x1="469.546" y1="145.069" x2="483.352" y2="158.875"/>
						
							<line style="fill:none;stroke:#142544;stroke-width:1.4216;stroke-miterlimit:10;" x1="497.407" y1="127.973" x2="483.601" y2="141.779"/>
					</g>
				</g>
				<g>
					<path style="fill:#4ABC99;" d="M263.531,138.028c0,19.787,11.066,24.452,24.716,24.452c13.651,0,24.716-4.665,24.716-24.452
						c0-19.787-11.066-47.203-24.716-47.203C274.597,90.825,263.531,118.241,263.531,138.028z"/>
					<g>
						
							<line style="fill:none;stroke:#142544;stroke-width:1.4216;stroke-miterlimit:10;" x1="288.372" y1="108.639" x2="288.372" y2="186.43"/>
						
							<line style="fill:none;stroke:#142544;stroke-width:1.4216;stroke-miterlimit:10;" x1="274.317" y1="138.028" x2="288.123" y2="151.834"/>
						
							<line style="fill:none;stroke:#142544;stroke-width:1.4216;stroke-miterlimit:10;" x1="302.178" y1="120.931" x2="288.372" y2="134.737"/>
					</g>
				</g>
			</g>
		</g>
		<g>
			<g>
				<path style="fill:#F19183;" d="M284.184,214.901l-2.724,3.347c0,0,11.098,4.187,9.945,7.262c-1.086,2.895-7.75-1.757-7.75-1.757
					s7.494,3.038,6.405,4.896c-0.962,1.641-3.651,1.922-8.128-1.224c-0.02-0.068,7.615,2.441,6.142,5.131
					c-1.197,2.186-8.02-1.487-8.02-1.487s6.787,1.429,5.617,3.76c-1.327,2.643-11.087-3.237-18.606-7.506
					c-3.091-1.755-4.273-5.609-2.697-8.796l0,0c1.058-2.138,3.154-3.737,5.539-3.714
					C278.968,214.901,284.292,212.738,284.184,214.901z"/>
				<path style="fill:#F19183;" d="M167.939,164.129c0,0,15.634-0.626,46.884,37.107c11.784,13.54,0.704,22.027-8.932,17.16
					c-9.637-4.867-37.575-27.441-37.575-27.441L167.939,164.129z"/>
				<path style="fill:#F19183;" d="M268.99,216.941c-27.958-9.334-64.904-20.328-67.177-6.364
					c-2.272,13.965,36.254,15.251,65.726,15.28L268.99,216.941z"/>
			</g>
			<g>
				<path style="fill:#222624;" d="M102.969,431.13c2.296,2.225,4.103,4.988,3.268,7.783l-25.64-7.654l2.64-8.845l9.15,2.731
					C96.32,426.32,100.022,428.275,102.969,431.13z"/>
				<path style="fill:#142544;" d="M107.54,329.67l19.164,4.503l-32.739,91.444l-10.547-3.148
					C83.419,422.469,83.419,375.168,107.54,329.67z"/>
			</g>
			<path style="fill:#142544;" d="M99.989,213.203c13.074,33.91,22.729,79.27,26.839,118.102c0.52,4.916-2.697,9.441-7.508,10.579
				l-12.686,4.138l-44.77-88.321L99.989,213.203z"/>
			<path style="fill:#142544;" d="M167.496,160.424c0,0,11.054,1.609,37.57,22.531c-13.973,13.973-22.603,22.603-22.603,22.603
				S149.629,184.144,167.496,160.424z"/>
			<path style="fill:#5577C1;" d="M114.937,295.932H62.992c-2.939,0-5.322-2.383-5.322-5.322l0,0c0-2.939,2.383-5.322,5.322-5.322
				h51.944c2.939,0,5.322,2.383,5.322,5.322l0,0C120.259,293.549,117.876,295.932,114.937,295.932z"/>
			<polygon style="fill:#02BBBE;" points="127.173,424.212 113.562,429.075 81.02,295.932 96.025,295.932 			"/>
			<polygon style="fill:#02BBBE;" points="269.078,461.743 259.463,463.03 217.168,317.133 227.988,321.318 			"/>
			<path style="fill:#142544;" d="M62.726,477.346h212.141c2.48,0,4.491-2.01,4.491-4.491v-1.421c0-2.48-2.011-4.491-4.491-4.491
				H62.726c-2.48,0-4.491,2.011-4.491,4.491v1.421C58.235,475.336,60.246,477.346,62.726,477.346z"/>
			<path style="fill:#02BBBE;" d="M219.261,292.792l-9.984,2.961l-7.465-25.175c-0.818-2.757,0.755-5.655,3.512-6.472l0,0
				c2.757-0.818,5.655,0.755,6.472,3.512L219.261,292.792z"/>
			<path style="fill:#02BBBE;" d="M64.408,467.572c0,0-5.544-81.165,52.732-81.165c58.276,0,159.751,80.482,159.751,80.482
				L64.408,467.572z"/>
			<g>
				<path style="fill:#02BBBE;" d="M130.882,454.506h-7.465c0-37.346,10.6-66.736,31.505-87.353
					c31.457-31.024,74.552-30.739,76.303-30.763l-0.098,7.465c-0.497,0.049-41.864-0.14-71.021,28.671
					C140.715,391.686,130.882,419.269,130.882,454.506z"/>
			</g>
			
				<ellipse transform="matrix(0.979 -0.2036 0.2036 0.979 -83.8735 32.9941)" style="fill:#2FD3DD;" cx="118.396" cy="424.075" rx="28.627" ry="28.627"/>
			<g>
				<path style="fill:#F3F0F5;" d="M118.396,437.498c-7.401,0-13.422-6.021-13.422-13.423c0-7.401,6.021-13.422,13.422-13.422
					c7.402,0,13.423,6.021,13.423,13.422C131.819,431.477,125.798,437.498,118.396,437.498z M118.396,414.384
					c-5.344,0-9.691,4.347-9.691,9.69s4.347,9.692,9.691,9.692c5.344,0,9.692-4.348,9.692-9.692S123.739,414.384,118.396,414.384z"
					/>
			</g>
			<g>
				<path style="fill:#142544;" d="M117.592,425.942c-0.558,0-1.11-0.25-1.477-0.725c-0.631-0.816-0.481-1.988,0.334-2.618
					l30.63-23.69c0.817-0.631,1.988-0.478,2.618,0.334c0.631,0.816,0.481,1.988-0.334,2.618l-30.63,23.69
					C118.393,425.814,117.991,425.942,117.592,425.942z"/>
			</g>
			<path style="fill:#142544;" d="M131.641,399.015l27.196,7.65c1.915,0.539,3.923-0.587,4.461-2.502l0,0
				c0.539-1.915-0.587-3.923-2.502-4.461l-27.196-7.651c-1.915-0.539-3.923,0.587-4.461,2.502l0,0
				C128.599,396.469,129.725,398.476,131.641,399.015z"/>
			<g>
				<path style="fill:#02BBBE;" d="M297.543,207.369c-1.555-1.25-3.828-1.003-5.077,0.551l-23.155,28.797l-64.852,27.72l2.839,6.641
					l66.283-28.331l2.93-3.457l21.584-26.843C299.344,210.892,299.097,208.618,297.543,207.369z"/>
				<path style="fill:#5577C1;" d="M276.322,243.004l27.224-33.445c1.861-2.286,1.513-5.678-0.773-7.538l0,0
					c-2.286-1.86-5.678-1.513-7.538,0.773l-27.224,33.445c-1.861,2.286-1.513,5.678,0.773,7.538l0,0
					C271.069,245.638,274.461,245.29,276.322,243.004z"/>
			</g>
			<path style="fill:#5577C1;" d="M230.255,334.125l-6.845,2.03c-2.423,0.719-4.97-0.663-5.689-3.087l-10.703-36.096
				c-0.719-2.423,0.663-4.97,3.087-5.689l6.845-2.03c2.423-0.719,4.97,0.663,5.689,3.087l10.703,36.095
				C234.06,330.86,232.678,333.407,230.255,334.125z"/>
			<g>
				<g>
					<path style="fill:#FCBBA7;" d="M129.491,257.744C129.437,257.892,129.547,257.596,129.491,257.744L129.491,257.744z"/>
					<path style="fill:#FCBBA7;" d="M76.696,206.438C76.841,206.378,76.549,206.496,76.696,206.438L76.696,206.438z"/>
				</g>
				<g>
					<path style="fill:#FCBBA7;" d="M161.93,168.693L161.93,168.693c5.066,3.601,12.091,2.413,15.692-2.652l17.702-24.903
						l-18.344-13.04l-17.702,24.903C155.676,158.066,156.864,165.092,161.93,168.693z"/>
					<path style="fill:#F19183;" d="M172.639,134.208c0,0,0.024,13.108,12.162,21.737c4.318-6.075,7.05-9.919,7.05-9.919
						l-17.624-14.058L172.639,134.208z"/>
				</g>
				<path style="fill:#142544;" d="M85.149,208.141c-24.172,11.836-33.924,38.07-20.23,53.94c1.627,1.886,3.316,3.646,5.045,5.299
					c1.702,1.68,3.51,3.319,5.441,4.891c16.314,13.282,42.176,2.731,53.501-22.044c1.789-3.913,3.884-7.751,6.683-11.147
					c0.666-0.809,1.366-1.59,2.059-2.377l-40.041-36.916C93.782,203.104,89.596,205.963,85.149,208.141z"/>
				<path style="fill:#E283B5;" d="M187.481,169.853c-3.622-6.681-10.78-13.11-16.384-18.201c-3.045-2.766-6.794-3.672-10.826-3.925
					c-10.478-0.656-21.874,4.228-29.977,13.521c-5.894,6.76-12.905,15.271-20.796,25.7c-2.78,3.674-5.836,7.117-9.118,10.323
					c-0.894,0.873-1.832,1.698-2.775,2.515l40.041,36.916c3.536-4.022,7.387-7.775,11.583-11.143
					c17.327-13.909,26.007-12.176,31.911-20.678c2.099-3.023,4.621-11.907,4.682-11.97c5.434-5.535,6.582-13.976,2.885-20.795
					C188.708,172.116,187.482,169.854,187.481,169.853z"/>
			</g>
			<path style="fill:#142544;" d="M77.979,217.381c33.222,14.733,72.124,39.98,102.489,64.533c3.844,3.108,4.769,8.583,2.171,12.789
				l-6.045,11.896L81.02,275.753L77.979,217.381z"/>
			<g>
				<path style="fill:#E0D8EA;" d="M156.521,392.022c2.261,2.261,4.023,5.053,3.144,7.834l-26.066-7.805l3.331-9.058l9.106,2.877
					C149.95,387.106,153.62,389.12,156.521,392.022z"/>
				<path style="fill:#142544;" d="M162.705,290.647l20.732,1.664l-35.83,94.055l-10.495-3.316
					C137.112,383.051,137.648,319.188,162.705,290.647z"/>
			</g>
			<g>
				<path style="fill:#FCBBA7;" d="M290.826,208.21l-2.576,3.164c0,0,10.948,4.129,9.795,7.204c-1.086,2.895-7.75-1.757-7.75-1.757
					s7.494,3.038,6.405,4.896c-0.962,1.641-3.651,1.922-8.127-1.224c-0.02-0.068,7.615,2.441,6.141,5.131
					c-1.197,2.186-8.02-1.487-8.02-1.487s6.787,1.429,5.617,3.76c-1.327,2.643-11.087-3.237-18.605-7.506
					c-3.091-1.755-4.273-5.609-2.697-8.796l0,0c1.058-2.138,3.154-3.737,5.539-3.714
					C285.607,207.969,290.934,206.047,290.826,208.21z"/>
				<path style="fill:#FCBBA7;" d="M221.463,194.306c-15.19-18.341-26.691-27.619-34.499-32.312
					c-3.019-1.814-6.512-4.237-10.296-5.46c-9.371-3.029-17.517,6.257-13.4,15.204c2.273,4.939,6.686,9.079,9.42,11.177
					c12.013,9.223,33.09,25.141,39.843,28.551C222.168,216.333,233.247,207.846,221.463,194.306z"/>
				<path style="fill:#FCBBA7;" d="M275.629,210.01c-27.958-9.334-64.904-20.328-67.177-6.364
					c-2.272,13.965,36.254,15.251,65.726,15.28L275.629,210.01z"/>
			</g>
			<path style="fill:#E283B5;" d="M164.147,148.244c0,0,11.054,1.609,37.57,22.531c-13.973,13.973-22.603,22.603-22.603,22.603
				S146.28,171.964,164.147,148.244z"/>
			<g>
				<path style="fill:#F19183;" d="M205.485,117.794c0,0,8.929,14.832-1.078,14.832"/>
				<g>
					<defs>
						<path id="SVGID_00000096758071555280010200000004092801116801873848_" d="M205.474,112.367c0,0,5.594,30.102-6.561,33.825
							c-15.264,4.676-32.296-18.911-33.232-28.95c-0.447-4.797,0.465-9.674,2.975-13.788c2.719-4.457,7.625-8.913,16.375-8.913
							C202.53,94.54,205.474,112.367,205.474,112.367z"/>
					</defs>
					<use xlink:href="#SVGID_00000096758071555280010200000004092801116801873848_"  style="overflow:visible;fill:#FCBBA7;"/>
					<clipPath id="SVGID_00000000907316116114066710000013535045640506163082_">
						<use xlink:href="#SVGID_00000096758071555280010200000004092801116801873848_"  style="overflow:visible;"/>
					</clipPath>
					
						<ellipse style="clip-path:url(#SVGID_00000000907316116114066710000013535045640506163082_);fill:#F19183;" cx="198.793" cy="125.21" rx="3.669" ry="2.134"/>
				</g>
				<g>
					<path style="fill:#222221;" d="M201.896,122.891L201.896,122.891c-0.911,0-1.656-0.745-1.656-1.656v-0.491
						c0-0.911,0.745-1.656,1.656-1.656l0,0c0.911,0,1.656,0.745,1.656,1.656v0.491C203.552,122.146,202.807,122.891,201.896,122.891
						z"/>
					
						<path style="fill:none;stroke:#222221;stroke-width:1.243;stroke-linecap:round;stroke-linejoin:round;stroke-miterlimit:10;" d="
						M200.24,116.819c0,0,1.656-1.901,3.312,0"/>
				</g>
				
					<path style="fill:none;stroke:#222221;stroke-width:1.243;stroke-linecap:round;stroke-linejoin:round;stroke-miterlimit:10;" d="
					M196.882,136.075"/>
				
					<path style="fill:none;stroke:#222221;stroke-width:1.243;stroke-linecap:round;stroke-linejoin:round;stroke-miterlimit:10;" d="
					M188.354,136.075"/>
				
					<path style="fill:none;stroke:#142544;stroke-width:1.264;stroke-linecap:round;stroke-linejoin:round;stroke-miterlimit:10;" d="
					M200.199,135.179c0,0,1.518,1.03,3.987,0.845"/>
				<path style="fill:#142544;" d="M186.166,126.702c0,0,2.138,14.901-4.396,14.901c-6.535,0-17.063-5.86-19.982-23.809
					c-2.919-17.949,10.189-25.648,23.042-25.133c11.906,0.477,19.932,4.532,17.575,11.76
					C188.589,105.08,186.384,116.21,186.166,126.702z"/>
				<g>
					<path style="fill:#5577C1;" d="M161.846,119.976h35.044c0.6,0,1.091-0.491,1.091-1.091l0,0c0-0.6-0.491-1.091-1.091-1.091
						h-35.044c-0.6,0-1.091,0.491-1.091,1.091l0,0C160.755,119.485,161.246,119.976,161.846,119.976z"/>
					<g>
						<path style="fill:#142544;" d="M208.169,121.879v-5.99c0-1.938,1.227-3.523,2.727-3.523h-12.648
							c-1.656,0-3.219,0.767-4.233,2.076l0,0c-0.726,0.938-1.12,2.091-1.12,3.277v2.33c0,1.186,0.394,2.339,1.12,3.276l0,0
							c1.014,1.31,2.577,2.076,4.233,2.076h12.647C209.397,125.403,208.169,123.817,208.169,121.879z"/>
						<path style="fill:#5577C1;" d="M218.923,121.879v-5.99c0-1.938-1.227-3.523-2.728-3.523h-5.727
							c-1.5,0-2.727,1.585-2.727,3.523v5.99c0,1.938,1.227,3.524,2.727,3.524h5.727
							C217.696,125.403,218.923,123.817,218.923,121.879z"/>
					</g>
				</g>
				<g>
					<path style="fill:#FCBBA7;" d="M181.316,118.398c-4.088,2.126-3.271,13.084,7.033,14.228l0.981-12.184
						C189.33,120.442,185.405,116.271,181.316,118.398z"/>
					<path style="fill:#F19183;" d="M187.659,123.972c0,0-2.329-4.27-4.58-2.639c-2.251,1.63-0.803,6.209,2.69,6.597
						C185.174,124.445,187.659,123.972,187.659,123.972z"/>
				</g>
				<path style="fill:#142544;" d="M164.747,75.812c-14.766-4.697-31.421-1.281-49.57,25.623
					c-18.149,26.904-32.455,19.644-45.48,35.231c-13.025,15.587,10.207,47.774,43.985,25.622
					c31.543-20.686,25.304-60.64,35.392-69.395c10.088-8.755,22.202-7.046,23.298,5.124l4.877-2.53
					C177.249,95.488,179.514,80.509,164.747,75.812z"/>
				<polygon style="fill:#2FD3DD;" points="170.498,91.982 177.08,89.801 178.03,93.181 171.462,95.521 				"/>
			</g>
			<path style="fill:#142544;" d="M152.956,387.971l-3.731,12.404l14.073,3.788C168.062,392.14,152.956,387.971,152.956,387.971z"/>
			<g>
				
					<ellipse transform="matrix(0.7071 -0.7071 0.7071 0.7071 -315.6648 182.2083)" style="fill:#142544;" cx="62.112" cy="472.145" rx="10.402" ry="10.402"/>
				<circle style="fill:#5577C1;" cx="61.864" cy="472.145" r="5.256"/>
			</g>
			<g>
				
					<ellipse transform="matrix(0.9735 -0.2287 0.2287 0.9735 -100.794 74.6487)" style="fill:#142544;" cx="271.634" cy="472.145" rx="10.402" ry="10.402"/>
				<circle style="fill:#5577C1;" cx="271.634" cy="472.145" r="5.256"/>
			</g>
			<polygon style="fill:#142544;" points="179.114,193.378 201.717,170.775 195.323,165.911 172.639,188.228 			"/>
			<path style="fill:none;stroke:#E283B5;stroke-width:1.264;stroke-miterlimit:10;" d="M114.54,215.398
				c0,0-39.652,24.559-21.918,37.68c14.589,10.795,59.332,29.256,74.739,35.463c2.965,1.194,4.476,4.492,3.457,7.521L142.2,384.658"
				/>
			
				<path style="fill:none;stroke:#E283B5;stroke-width:1.264;stroke-linecap:round;stroke-linejoin:round;stroke-miterlimit:10;" d="
				M135.047,236.648c0,0-5.474,9.393,0,9.393C140.52,246.041,135.047,236.648,135.047,236.648z"/>
			
				<path style="fill:none;stroke:#E283B5;stroke-width:1.264;stroke-linecap:round;stroke-linejoin:round;stroke-miterlimit:10;" d="
				M135.047,236.648c0,0,2.606,11.208,6.706,7.581C145.853,240.603,135.047,236.648,135.047,236.648z"/>
			
				<path style="fill:none;stroke:#E283B5;stroke-width:1.264;stroke-linecap:round;stroke-linejoin:round;stroke-miterlimit:10;" d="
				M96.116,201.038"/>
			
				<path style="fill:none;stroke:#E283B5;stroke-width:1.264;stroke-linecap:round;stroke-linejoin:round;stroke-miterlimit:10;" d="
				M129.122,243.564c0,0,2.897-5.972,5.925-6.916"/>
		</g>
	</g>
</g>
</svg>
