<?xml version="1.0" encoding="utf-8"?>
<!-- Generator: Adobe Illustrator 27.5.0, SVG Export Plug-In . SVG Version: 6.00 Build 0)  -->
<svg version="1.1" id="Capa_1" xmlns="http://www.w3.org/2000/svg" xmlns:xlink="http://www.w3.org/1999/xlink" x="0px" y="0px"
	 viewBox="0 0 2122 2122" style="enable-background:new 0 0 2122 2122;" xml:space="preserve">
<rect x="0.007" y="0.01" style="fill:#FFF7F1;" width="2121.306" height="2121.301"/>
<rect x="1677.347" style="fill:#E3E3E3;" width="59.868" height="1803.289"/>
<rect x="0.007" y="1712.379" style="fill:#A2816C;" width="2121.306" height="408.932"/>
<g>
	<rect x="97.831" y="74.835" style="fill:#FFFFFF;" width="776.244" height="1559.822"/>
	<rect x="167.382" y="119.736" style="fill:#C9E8FB;" width="637.139" height="1470.026"/>
	<rect x="468.549" y="80.148" style="fill:#FFFFFF;" width="34.816" height="1529.621"/>
	<rect x="120.523" y="781.947" style="fill:#FFFFFF;" width="730.853" height="54.43"/>
</g>
<rect x="1707.281" y="484.059" style="fill:#E3E3E3;" width="414.04" height="96.114"/>
<rect x="1707.281" y="1144.711" style="fill:#E3E3E3;" width="414.04" height="96.113"/>
<rect x="1737.214" y="782.814" style="fill:#CACACA;" width="54.879" height="361.897"/>
<rect x="1792.093" y="782.814" style="fill:#DCDCDC;" width="49.89" height="361.897"/>
<rect x="1841.983" y="782.814" style="fill:#E3E3E3;" width="49.89" height="361.897"/>
<rect x="1940.711" y="782.814" transform="matrix(0.9614 -0.2752 0.2752 0.9614 -189.3469 578.2708)" style="fill:#EBEBEB;" width="49.89" height="361.897"/>
<rect x="2066.488" y="782.814" style="fill:#D4D4D4;" width="55.541" height="361.897"/>
<ellipse style="fill:#D1BDB9;" cx="1077.418" cy="1913.281" rx="396.861" ry="67.349"/>
<g>
	<g>
		<rect x="1293.949" y="349.447" style="fill:#C6C6C6;" width="143.487" height="39.566"/>
		<path style="fill:#3A4348;" d="M1315.028,396.993c0,11.715-9.498,21.216-21.218,21.216h-23.693c-11.725,0-21.22-9.5-21.22-21.216
			v-55.522c0-11.722,9.495-21.223,21.22-21.223h23.693c11.72,0,21.218,9.501,21.218,21.223V396.993z"/>
		<path style="fill:#3A4348;" d="M1470.503,396.993c0,11.715-9.5,21.216-21.223,21.216h-23.688c-11.727,0-21.223-9.5-21.223-21.216
			v-55.522c0-11.722,9.496-21.223,21.223-21.223h23.688c11.722,0,21.223,9.501,21.223,21.223V396.993z"/>
		<rect x="1248.897" y="341.471" style="fill:#454F56;" width="66.131" height="55.522"/>
		<rect x="1404.37" y="341.471" style="fill:#454F56;" width="66.133" height="55.522"/>
	</g>
	<path style="fill:#3D120E;" d="M1051.769,463.642c0,59.819,18.339,227.969-9.51,246.534c-40.189,26.789-83.029-12.2-89.68-69.069
		c-7.065-60.419,5.013-62.75,5.542-102.114c1.109-82.452,12.163-194.768,12.163-194.768S1051.769,403.826,1051.769,463.642z"/>
	<path style="fill:#3D120E;" d="M1056.12,469.737c0,59.819-20.955,221.874,6.894,240.439c40.19,26.789,83.03-12.2,89.68-69.069
		c7.067-60.419-5.013-62.75-5.544-102.114c-1.106-82.452-11.44-191.029-11.44-191.029S1056.12,409.916,1056.12,469.737z"/>
	<g>
		<g>
			<path style="fill:#F8BB98;" d="M1354.967,408.515c0.19,10.609-5.471,196.987-5.471,196.987l-180.193-58.441l7.191,123.889
				c0,0,227.876,32.653,245.401-24.08c26.231-84.923-30.86-233.255-45.077-245.033
				C1362.597,390.055,1354.777,397.899,1354.967,408.515z"/>
			<path style="fill:#F8BB98;" d="M1329.084,342.813c10.704-15.021,47.781-16.811,56.845-1.342
				c9.06,15.469-3.596,68.287-3.596,68.287l-27.02,0.617C1355.313,410.374,1318.378,357.833,1329.084,342.813z"/>
		</g>
		<path style="fill:none;stroke:#E9A37C;stroke-width:4.2914;stroke-linecap:round;stroke-miterlimit:10;" d="M1348.743,603.853
			c6.214,2.526,13.123,5.32,19.948,6.648"/>
	</g>
	<path style="fill:#F8BB98;" d="M868.893,1919.015c-6.989,9.186-64.284,4.161-78.749,2.129
		c-15.523-2.178,18.655-107.994,18.655-107.994s46.996-14.96,46.363,0C854.521,1828.117,875.885,1909.827,868.893,1919.015z"/>
	<path style="fill:#F8BB98;" d="M956.734,850.916c0,0-41.89,36.942-79.653,171.798c-48.877,174.571-68.282,790.436-68.282,790.436
		h46.363c0,0,194.027-598.136,207.608-777.691c7.467-98.674,10.423-193.728,10.423-193.728S1029.299,811.013,956.734,850.916z"/>
	<path style="fill:#F8BB98;" d="M1230.798,1919.015c6.991,9.186,64.284,4.161,78.747,2.129
		c15.525-2.178-18.655-107.994-18.655-107.994s-46.991-14.96-46.358,0C1245.17,1828.117,1223.806,1909.827,1230.798,1919.015z"/>
	<path style="fill:#F8BB98;" d="M1142.959,850.916c0,0,41.89,36.942,79.649,171.798c48.881,174.571,68.282,790.436,68.282,790.436
		h-46.358c0,0-194.027-598.136-207.608-777.691c-7.467-98.674-10.423-193.728-10.423-193.728S1070.395,811.013,1142.959,850.916z"/>
	<path style="fill:#8E4493;" d="M1034.561,1191.29c14.896-63.814,25.403-118.757,28.209-155.831
		c7.467-98.674,10.423-193.728,10.423-193.728s-43.895-30.719-116.459,9.184c0,0-41.89,36.942-79.653,171.798
		c-9.306,33.245-17.547,82.506-24.787,140.459C919.801,1222.325,1034.561,1191.29,1034.561,1191.29z"/>
	<path style="fill:#8E4493;" d="M1065.128,1191.29c0,0,119.578,15.517,182.035-29.983c-7.186-57.149-15.344-105.707-24.555-138.593
		c-37.759-134.856-79.649-171.798-79.649-171.798c-72.564-39.903-116.459-9.184-116.459-9.184s2.957,95.054,10.423,193.728
		C1039.727,1072.533,1050.234,1127.476,1065.128,1191.29z"/>
	<path style="fill:#D467A4;" d="M1187.831,662.211c0.002-51.888-13.021-111.12-23.274-123.86
		c-10.255-12.735-82.211-25.203-82.211-25.203h-58.026c0,0-75.892,13.006-87.122,28.528
		c-11.228,15.527-21.459,72.738-22.443,131.629c-1.576,94.482,41.98,177.611,41.98,177.611h187.871
		C1144.606,850.916,1187.826,742.018,1187.831,662.211z"/>
	<g>
		<path style="fill:#F8BB98;" d="M1082.346,514.882c0,0,0,14.531-29.347,13.474c-28.246-1.013-28.68-13.474-28.68-13.474
			l2.792-28.65h51.9L1082.346,514.882z"/>
		<path style="fill:#F8BB98;" d="M1109.924,372.547c-0.173-34.012-16.801-72.223-16.801-72.223l-43.215-5.669l-43.218,5.669
			c0,0-16.631,38.211-16.801,72.223c-0.078,14.307-4.088,33.537-1.598,51.956c3.474,25.619,17.459,70.93,61.617,70.93
			c46.547,0,57.183-45.284,61.139-70.935C1114.01,405.261,1109.995,386.783,1109.924,372.547z"/>
		<path style="fill:#3D120E;" d="M1135.71,347.965c0.041-29.927-32.097-66.94-79.59-71.49
			c-47.498-4.548-85.836,41.982-85.836,67.751c0,16.816,13.042,54.253,13.042,54.253l12.027,1.094c0,0,2.614-66.64,21.995-64.075
			c28.238,46.979,87.229,6.748,85.11,36.296c-0.829,11.581-1.109,20.782,1.339,28.914c3.584,11.91,14.729,8.214,14.729,8.214
			S1135.68,368.223,1135.71,347.965z"/>
		<path style="fill:#F8BB98;" d="M1100.528,402.914c-12.643,1.898,7.333,18.112,16.843,16.509
			c6.797-1.15,14.192-10.331,14.192-23.145c0-14.105-9.018-19.847-15.81-18.719C1103.91,379.548,1109.176,401.594,1100.528,402.914z
			"/>
		<path style="fill:#F8BB98;" d="M999.282,402.914c12.643,1.898-7.332,18.112-16.843,16.509
			c-6.797-1.15-14.192-10.331-14.192-23.145c0-14.105,9.021-19.847,15.815-18.719C995.901,379.548,990.637,401.594,999.282,402.914z
			"/>
		<path style="fill:none;stroke:#E9A37C;stroke-width:4.2914;stroke-linecap:round;stroke-miterlimit:10;" d="M1066.731,492.13
			c-15.196,7.642-33.646-0.295-33.646-0.295"/>
		<g>
			<path style="fill:#392E39;" d="M1079.011,392.018c0,4.168,1.498,7.554,3.335,7.554c1.841,0,3.338-3.386,3.338-7.554
				c0-4.171-1.496-7.554-3.338-7.554C1080.509,384.464,1079.011,387.848,1079.011,392.018z"/>
			<path style="fill:#3D120E;" d="M1095.754,375.872c-7.693-6.168-22.017-6.226-22.017-7.364c0-1.142-1.154-5.596-0.097-6.346
				c1.043-0.738,18.187,4.365,23.176,10.694C1098.146,374.54,1097.859,377.548,1095.754,375.872z"/>
			<path style="fill:none;stroke:#E9A37C;stroke-width:4.2914;stroke-linecap:round;stroke-miterlimit:10;" d="M1051.491,383.405
				c0,0,1.301,21.057-1.705,29.649"/>
			<path style="fill:#F4A38E;" d="M1065.313,415.404c-0.735,3.946,4.799,8.285,12.366,9.7c7.571,1.405,14.3-0.653,15.03-4.597
				c0.735-3.949-4.804-8.295-12.37-9.703C1072.772,409.404,1066.044,411.463,1065.313,415.404z"/>
			<path style="fill:#392E39;" d="M1020.685,392.018c0,4.168-1.501,7.554-3.337,7.554c-1.842,0-3.335-3.386-3.335-7.554
				c0-4.171,1.493-7.554,3.335-7.554C1019.184,384.464,1020.685,387.848,1020.685,392.018z"/>
			<path style="fill:#3D120E;" d="M1003.94,375.872c7.696-6.168,22.021-6.226,22.021-7.364c0-1.142,1.15-5.596,0.098-6.346
				c-1.045-0.738-18.192,4.365-23.179,10.694C1001.548,374.54,1001.838,377.548,1003.94,375.872z"/>
			<path style="fill:#F4A38E;" d="M1034.385,415.404c0.736,3.946-4.804,8.285-12.37,9.7c-7.569,1.405-14.299-0.653-15.03-4.597
				c-0.733-3.949,4.804-8.295,12.37-9.703C1026.921,409.404,1033.65,411.463,1034.385,415.404z"/>
			<path style="fill:none;stroke:#E9A37C;stroke-width:4.2914;stroke-linecap:round;stroke-miterlimit:10;" d="M1042.258,417.762
				c3.206-3.951,10.115-2.867,13.861,0.193"/>
			<path style="fill:none;stroke:#E9A37C;stroke-width:4.2914;stroke-linecap:round;stroke-miterlimit:10;" d="M1068.607,446.895
				c-8.726,7.486-27.03,8.119-37.406,0"/>
		</g>
	</g>
	<path style="fill:none;stroke:#9C3E7D;stroke-width:4.9877;stroke-linecap:round;stroke-miterlimit:10;" d="M988.788,680.927
		c26.477,11.549,52.35-4.906,78.177-3.362c25.427,1.52,46.548,13.661,69.79-6.614"/>
	<path style="fill:#D467A4;" d="M1183.495,685.063h72.146l25.766-103.889c0,0-86.647-43.797-140.181-54.877
		C1097.569,517.262,1183.495,685.063,1183.495,685.063z"/>
	<path style="fill:none;stroke:#9C3E7D;stroke-width:4.9877;stroke-linecap:round;stroke-miterlimit:10;" d="M1188.474,671.811
		c0.377-11.181-6.129-39.598-9.974-49.88"/>
	<g>
		<rect x="676.781" y="349.447" style="fill:#C6C6C6;" width="143.492" height="39.566"/>
		<path style="fill:#3A4348;" d="M799.187,396.993c0,11.715,9.501,21.216,21.218,21.216h23.693c11.725,0,21.22-9.5,21.22-21.216
			v-55.522c0-11.722-9.496-21.223-21.22-21.223h-23.693c-11.717,0-21.218,9.501-21.218,21.223V396.993z"/>
		<path style="fill:#3A4348;" d="M643.714,396.993c0,11.715,9.5,21.216,21.22,21.216h23.69c11.727,0,21.223-9.5,21.223-21.216
			v-55.522c0-11.722-9.496-21.223-21.223-21.223h-23.69c-11.72,0-21.22,9.501-21.22,21.223V396.993z"/>
		<rect x="799.187" y="341.471" style="fill:#454F56;" width="66.131" height="55.522"/>
		<rect x="643.714" y="341.471" style="fill:#454F56;" width="66.133" height="55.522"/>
	</g>
	<g>
		<g>
			<path style="fill:#F8BB98;" d="M759.25,408.515c-0.19,10.609,5.471,196.987,5.471,196.987l180.193-58.441l-7.191,123.889
				c0,0-227.876,32.653-245.403-24.08c-26.229-84.923,30.859-233.255,45.079-245.033C751.618,390.055,759.44,397.899,759.25,408.515
				z"/>
			<path style="fill:#F8BB98;" d="M785.131,342.813c-10.704-15.021-47.78-16.811-56.842-1.342
				c-9.062,15.469,3.596,68.287,3.596,68.287l27.021,0.617C758.904,410.374,795.837,357.833,785.131,342.813z"/>
		</g>
		<path style="fill:none;stroke:#E9A37C;stroke-width:4.2914;stroke-linecap:round;stroke-miterlimit:10;" d="M765.474,603.853
			c-6.216,2.526-13.122,5.32-19.949,6.648"/>
	</g>
	<path style="fill:#D467A4;" d="M930.72,685.063h-72.143l-25.769-103.889c0,0,86.647-43.797,140.184-54.877
		C1016.646,517.262,930.72,685.063,930.72,685.063z"/>
	<path style="fill:none;stroke:#9C3E7D;stroke-width:4.9877;stroke-linecap:round;stroke-miterlimit:10;" d="M925.741,671.811
		c-0.378-11.181,6.131-39.598,9.975-49.88"/>
	<path style="fill:none;stroke:#742F82;stroke-width:6.6503;stroke-linecap:round;stroke-miterlimit:10;" d="M1012.432,1112.923
		c33.912,11.461,47.649,8.453,79.802,0"/>
	<path style="fill:none;stroke:#E9A37C;stroke-width:4.2914;stroke-linecap:round;stroke-miterlimit:10;" d="M882.752,1371.296
		c15.685,7.7,36.321,9.515,53.2,3.328"/>
	<path style="fill:none;stroke:#E9A37C;stroke-width:4.2914;stroke-linecap:round;stroke-miterlimit:10;" d="M1215.095,1371.296
		c-15.688,7.7-36.324,9.515-53.203,3.328"/>
</g>
</svg>
