<?xml version="1.0" encoding="utf-8"?>
<!-- Generator: Adobe Illustrator 27.5.0, SVG Export Plug-In . SVG Version: 6.00 Build 0)  -->
<svg version="1.1" xmlns="http://www.w3.org/2000/svg" xmlns:xlink="http://www.w3.org/1999/xlink" x="0px" y="0px"
	 viewBox="0 0 500 500" style="enable-background:new 0 0 500 500;" xml:space="preserve">
<g id="BACKGROUND">
	<rect style="fill:#FFFFFF;" width="500" height="500"/>
</g>
<g id="OBJECTS">
	<g>
		<defs>
			<rect id="SVGID_1_" width="500" height="500"/>
		</defs>
		<clipPath id="SVGID_00000119819552942368288610000006375691889100797627_">
			<use xlink:href="#SVGID_1_"  style="overflow:visible;"/>
		</clipPath>
		
			<path style="clip-path:url(#SVGID_00000119819552942368288610000006375691889100797627_);fill-rule:evenodd;clip-rule:evenodd;fill:#F4F4F4;" d="
			M412.325,485.785h63.998V-26.072h-63.998V485.785z M286.813,485.785h63.998V-26.072h-63.998V485.785z M161.3,485.785h63.998
			V-26.072H161.3V485.785z M35.788,485.785h63.998V-26.072H35.788V485.785z"/>
		<g style="clip-path:url(#SVGID_00000119819552942368288610000006375691889100797627_);">
			<rect x="-13.281" y="433.321" style="fill-rule:evenodd;clip-rule:evenodd;fill:#F4F4F4;" width="520.911" height="77.41"/>
			<path style="fill-rule:evenodd;clip-rule:evenodd;fill:#FFFFFF;" d="M-13.148,454.948l526.296,6.15l-0.252,2.756l-525.485,8.617
				L-13.148,454.948z M513.148,477.507l-526.296,3.348l0.252,1.501l525.485,4.691L513.148,477.507z"/>
		</g>
		<g style="clip-path:url(#SVGID_00000119819552942368288610000006375691889100797627_);">
			<circle style="fill-rule:evenodd;clip-rule:evenodd;fill:#DF9F3E;" cx="332.847" cy="62.904" r="10.337"/>
			<path style="fill-rule:evenodd;clip-rule:evenodd;fill:#4F86A2;" d="M334.426,42.983c17.987,0.459,33.021,8.735,37.807,19.921
				h-78.772c4.786-11.186,19.82-19.462,37.807-19.921V-5.808h3.158V42.983z"/>
		</g>
		<g style="clip-path:url(#SVGID_00000119819552942368288610000006375691889100797627_);">
			<path style="fill-rule:evenodd;clip-rule:evenodd;fill:#DF9F3E;" d="M93.063,399.531c0-7.962-6.464-14.426-14.426-14.426H1.145
				c-7.962,0-14.426,6.464-14.426,14.426v28.852c0,7.962,6.464,14.426,14.426,14.426h77.492c7.962,0,14.426-6.464,14.426-14.426
				V399.531z"/>
			<path style="fill-rule:evenodd;clip-rule:evenodd;fill:#DF9F3E;" d="M93.063,280.199c0-16.667-13.532-30.199-30.199-30.199
				H-3.381c-16.667,0-30.199,13.532-30.199,30.199v60.398c0,16.667,13.532,30.199,30.199,30.199h66.245
				c16.667,0,30.199-13.532,30.199-30.199V280.199z"/>
			<path style="fill-rule:evenodd;clip-rule:evenodd;fill:#FFB647;" d="M78.249,363.085c0-5.316-4.316-9.631-9.631-9.631h-87.324
				c-5.316,0-9.631,4.315-9.631,9.631v19.263c0,5.316,4.316,9.631,9.631,9.631h87.324c5.316,0,9.631-4.315,9.631-9.631V363.085z"/>
			<path style="fill-rule:evenodd;clip-rule:evenodd;fill:#FFB647;" d="M121.626,312.965c0-6.124-4.972-11.096-11.095-11.096H88.339
				c-6.124,0-11.096,4.972-11.096,11.096v115.342c0,6.124,4.972,11.096,11.096,11.096h22.192c6.123,0,11.095-4.972,11.095-11.096
				V312.965z"/>
		</g>
		<g style="clip-path:url(#SVGID_00000119819552942368288610000006375691889100797627_);">
			<rect x="44.527" y="49.501" style="fill-rule:evenodd;clip-rule:evenodd;fill:#D7D7D7;" width="107.469" height="83.234"/>
			<rect x="50.256" y="55.035" style="fill-rule:evenodd;clip-rule:evenodd;fill:#F4F4F4;" width="96.481" height="72.526"/>
			<g>
				<defs>
					<rect id="SVGID_00000077324771748183539250000018146018758814314684_" x="50.256" y="55.035" width="96.481" height="72.526"/>
				</defs>
				<clipPath id="SVGID_00000015318756579479374900000015973000017521710987_">
					<use xlink:href="#SVGID_00000077324771748183539250000018146018758814314684_"  style="overflow:visible;"/>
				</clipPath>
				
					<path style="clip-path:url(#SVGID_00000015318756579479374900000015973000017521710987_);fill-rule:evenodd;clip-rule:evenodd;fill:#FFFFFF;" d="
					M17.481,145.247l22.014,21.479L177.613,25.17L155.599,3.69L17.481,145.247z M47.903,170.41l8.337,8.134L194.358,36.988
					l-8.337-8.134L47.903,170.41z"/>
			</g>
		</g>
		<g style="clip-path:url(#SVGID_00000119819552942368288610000006375691889100797627_);">
			<rect x="433.347" y="73.433" style="fill-rule:evenodd;clip-rule:evenodd;fill:#FFB647;" width="84.827" height="109.491"/>
			<rect x="440.871" y="80.491" style="fill-rule:evenodd;clip-rule:evenodd;fill:#F4F4F4;" width="63.625" height="94.539"/>
			<g>
				<defs>
					
						<rect id="SVGID_00000056397033784141352080000010116434355857286582_" x="440.871" y="80.491" width="63.625" height="94.539"/>
				</defs>
				<clipPath id="SVGID_00000140700331733215695420000007240065426922020005_">
					<use xlink:href="#SVGID_00000056397033784141352080000010116434355857286582_"  style="overflow:visible;"/>
				</clipPath>
				
					<path style="clip-path:url(#SVGID_00000140700331733215695420000007240065426922020005_);fill-rule:evenodd;clip-rule:evenodd;fill:#FFFFFF;" d="
					M373.499,189.388l22.013,21.479L533.631,69.311l-22.014-21.48L373.499,189.388z M403.921,214.551l8.336,8.134L550.376,81.129
					l-8.337-8.134L403.921,214.551z"/>
			</g>
		</g>
		<g style="clip-path:url(#SVGID_00000119819552942368288610000006375691889100797627_);">
			<polygon style="fill-rule:evenodd;clip-rule:evenodd;fill:#BFBFBF;" points="414.661,301.337 381.974,444.151 376.603,444.184 
				412.227,285.071 418.126,285.259 444.151,444.341 438.06,444.37 			"/>
			<rect x="355.255" y="281.994" style="fill-rule:evenodd;clip-rule:evenodd;fill:#D7D7D7;" width="159.488" height="7.501"/>
			<polygon style="fill-rule:evenodd;clip-rule:evenodd;fill:#293D45;" points="464.793,252.989 444.151,252.989 446.151,281.994 
				462.491,281.994 			"/>
		</g>
	</g>
	<g>
		<path style="fill-rule:evenodd;clip-rule:evenodd;fill:#E58E6B;" d="M258.934,142.292c0.144,5.26,2.316,14.155,2.316,14.155
			s-10.219,4.358-18.862,0.343c0,0,1.872-11.929,1.529-14.618"/>
		<path style="fill-rule:evenodd;clip-rule:evenodd;fill:#E58E6B;" d="M244.556,285.296c0,0-2.209,40.636-14.08,77.102
			c0,0,2.153,2.364,2.406,6.182c0.566,8.501-2.832,38.586-14.705,76.808c-5.71,18.383-10.145-2.426-10.145-2.426
			s-2.527-47.622,0.924-71.635c0,0-0.834-7.426,0.673-12.373c0,0-1.773-48.126,3.359-72.435l10.501-6.469"/>
		<path style="fill-rule:evenodd;clip-rule:evenodd;fill:#FFFFFF;" d="M209.097,448.215c-0.692-0.421-2.225-1.211-2.713-1.971
			c-0.115-0.181,0.693-1.18,0.556-1.655c-0.089-0.309-0.365-0.494-0.451-0.789c-0.055-0.19,0.123-0.46,0.105-0.667
			c-0.033-0.39-0.282-0.675-0.437-1.006c-0.12-0.257-0.155-0.916,0.151-1.055c0.419-0.191,1.292,0.19,1.698,0.274
			c1.348,0.279,2.67,0.704,4.023,0.954c2.083,0.385,4.34,0.688,6.353,1.45c0.449,0.17,1.614,0.577,1.894,1.08
			c0.131,0.237-0.349,0.783-0.349,1.081c0.001,0.344,0.45,0.585,0.385,0.919c-0.068,0.356-0.378,0.6-0.571,0.865
			c-0.545,0.744-1.034,1.54-1.631,2.234"/>
		<path style="fill-rule:evenodd;clip-rule:evenodd;fill:#FFFFFF;" d="M219.798,460.372c1.028,0.114,0.601,2.166-0.237,2.334
			c-1.205,0.242-2.35,0.206-3.576,0.269c-1.801,0.093-3.842,0.013-5.647,0.092c-2.883,0.127-5.749,0.01-8.632,0.036
			c-4.372,0.039-8.754,0.298-13.122,0.005c-1.727-0.116-3.453-0.278-5.18-0.388c-0.595-0.038-1.79-0.558-1.928-1.263
			c-0.432-2.217,1.294-1.048,2.532-0.998c1.583,0.064,3.161-0.026,4.744,0.078c4.416,0.29,8.833,0.367,13.262,0.213
			c4.14-0.144,8.241-0.479,12.391-0.487"/>
		<path style="fill-rule:evenodd;clip-rule:evenodd;fill:#4F86A2;" d="M219.057,448.149c0.927-0.021,0.412,3.549,0.481,4.525
			c0.144,2.047,0.804,4.035,1.04,6.071c0.114,0.988,0.049,2.012-1.061,2.461c-1.522,0.616-3.315,0.427-4.921,0.422
			c-2.343-0.007-4.69-0.073-7.033-0.113c-7.762-0.13-15.964,1.218-23.638-0.206c-0.554-0.103-1.114-0.223-1.62-0.457
			c-1.777-0.822-1.813-2.522-0.663-3.894c0.997-1.191,2.757-1.924,4.131-2.685c3.377-1.869,6.972-2.49,10.515-4.065
			c2.895-1.288,7.774-3.255,11.085-3.463C208.572,446.668,212.313,448.302,219.057,448.149z"/>
		<g>
			<defs>
				<path id="SVGID_00000115497807586772446080000007661080926736290201_" d="M219.057,448.149c0.927-0.021,0.412,3.549,0.481,4.525
					c0.144,2.047,0.804,4.035,1.04,6.071c0.114,0.988,0.049,2.012-1.061,2.461c-1.522,0.616-3.315,0.427-4.921,0.422
					c-2.343-0.007-4.69-0.073-7.033-0.113c-7.762-0.13-15.964,1.218-23.638-0.206c-0.554-0.103-1.114-0.223-1.62-0.457
					c-1.777-0.822-1.813-2.522-0.663-3.894c0.997-1.191,2.757-1.924,4.131-2.685c3.377-1.869,6.972-2.49,10.515-4.065
					c2.895-1.288,7.774-3.255,11.085-3.463C208.572,446.668,212.313,448.302,219.057,448.149z"/>
			</defs>
			<clipPath id="SVGID_00000086666858876178954110000018009913282076572043_">
				<use xlink:href="#SVGID_00000115497807586772446080000007661080926736290201_"  style="overflow:visible;"/>
			</clipPath>
			
				<path style="clip-path:url(#SVGID_00000086666858876178954110000018009913282076572043_);fill-rule:evenodd;clip-rule:evenodd;fill:#FFFFFF;" d="
				M202.628,447.299c0.474,0.695,0.981,1.371,1.443,2.074c0.25,0.379,0.508,0.753,0.755,1.135c0.205,0.319,0.409,0.638,0.629,0.948
				c0.075,0.106,0.249,0.267,0.273,0.405c0.023,0.129-0.103,0.268-0.178,0.358c-0.041,0.05-0.157,0.246-0.221,0.263
				c-0.317,0.084-0.798-0.688-0.94-0.881c-0.52-0.707-1.064-1.399-1.551-2.131c-0.53-0.797-1.02-1.667-1.653-2.388L202.628,447.299z
				 M200.266,447.813c0.47,1.315,1.322,2.542,2.025,3.738c0.231,0.393,0.507,0.759,0.73,1.157c0.039,0.069,0.215,0.301,0.21,0.386
				c-0.004,0.084-0.189,0.233-0.249,0.292c-0.242,0.242-0.356,0.476-0.645,0.178c-0.068-0.071-0.153-0.178-0.21-0.256
				c-0.086-0.119-0.147-0.22-0.219-0.348c-0.444-0.782-0.83-1.597-1.294-2.367c-0.5-0.826-1.048-1.632-1.478-2.497L200.266,447.813z
				 M197.953,448.704c0.2,0.321,0.327,0.711,0.472,1.069c0.319,0.787,0.598,1.592,0.87,2.403c0.136,0.404,0.277,0.803,0.421,1.203
				c0.054,0.15,0.174,0.365,0.201,0.529c0.046,0.286-0.264,0.51-0.428,0.646c-0.057,0.048-0.165,0.18-0.25,0.123
				c-0.138-0.092-0.201-0.371-0.248-0.531c-0.121-0.417-0.239-0.832-0.39-1.236c-0.182-0.492-0.365-0.984-0.557-1.471
				c-0.327-0.827-0.733-1.604-1.026-2.45L197.953,448.704z"/>
		</g>
		<path style="fill-rule:evenodd;clip-rule:evenodd;fill:#D97054;" d="M216.217,362.701c-0.285,0.693-0.82,1.751-1.201,2.879
			c-0.379,1.118-0.593,2.278-0.829,2.981c-0.049,0.119,0.009,0.256,0.128,0.305c0.12,0.049,0.256-0.009,0.305-0.128
			c0.328-0.676,0.87-1.746,1.223-2.891c0.352-1.141,0.505-2.323,0.659-3.058c0.024-0.079-0.021-0.163-0.1-0.187
			C216.325,362.579,216.241,362.623,216.217,362.701z"/>
		<path style="fill-rule:evenodd;clip-rule:evenodd;fill:#E58E6B;" d="M252.486,285.296c0,0,2.21,40.636,14.08,77.102
			c0,0-2.152,2.364-2.406,6.182c-0.565,8.501,2.833,38.586,14.706,76.808c5.71,18.383,10.145-2.426,10.145-2.426
			s2.527-47.622-0.924-71.635c0,0,0.834-7.426-0.673-12.373c0,0,1.773-48.126-3.36-72.435l-10.5-6.469"/>
		<path style="fill-rule:evenodd;clip-rule:evenodd;fill:#FFFFFF;" d="M287.945,448.215c0.693-0.421,2.226-1.211,2.713-1.971
			c0.116-0.181-0.692-1.18-0.555-1.655c0.089-0.309,0.364-0.494,0.45-0.789c0.055-0.19-0.122-0.46-0.104-0.667
			c0.033-0.39,0.281-0.675,0.436-1.006c0.12-0.257,0.155-0.916-0.151-1.055c-0.42-0.191-1.292,0.19-1.7,0.274
			c-1.348,0.279-2.669,0.704-4.022,0.954c-2.083,0.385-4.341,0.688-6.353,1.45c-0.45,0.17-1.614,0.577-1.894,1.08
			c-0.132,0.237,0.348,0.783,0.348,1.081c0,0.344-0.448,0.585-0.384,0.919c0.067,0.356,0.377,0.6,0.571,0.865
			c0.544,0.744,1.033,1.54,1.63,2.234"/>
		<path style="fill-rule:evenodd;clip-rule:evenodd;fill:#FFFFFF;" d="M277.246,460.372c-1.029,0.114-0.6,2.166,0.236,2.334
			c1.205,0.242,2.351,0.206,3.576,0.269c1.801,0.093,3.843,0.013,5.647,0.092c2.883,0.127,5.749,0.01,8.633,0.036
			c4.372,0.039,8.754,0.298,13.121,0.005c1.728-0.116,3.453-0.278,5.18-0.388c0.595-0.038,1.791-0.558,1.928-1.263
			c0.433-2.217-1.293-1.048-2.532-0.998c-1.582,0.064-3.16-0.026-4.743,0.078c-4.417,0.29-8.833,0.367-13.263,0.213
			c-4.139-0.144-8.242-0.479-12.391-0.487"/>
		<path style="fill-rule:evenodd;clip-rule:evenodd;fill:#4F86A2;" d="M277.985,448.149c-0.926-0.021-0.411,3.549-0.48,4.525
			c-0.146,2.047-0.804,4.035-1.04,6.071c-0.115,0.988-0.049,2.012,1.061,2.461c1.522,0.616,3.314,0.427,4.921,0.422
			c2.342-0.007,4.689-0.073,7.031-0.113c7.763-0.13,15.964,1.218,23.639-0.206c0.555-0.103,1.114-0.223,1.62-0.457
			c1.778-0.822,1.814-2.522,0.663-3.894c-0.997-1.191-2.756-1.924-4.131-2.685c-3.376-1.869-6.972-2.49-10.514-4.065
			c-2.896-1.288-7.775-3.255-11.085-3.463C288.47,446.668,284.73,448.302,277.985,448.149z"/>
		<g>
			<defs>
				<path id="SVGID_00000135665105675942006660000012329461332569367213_" d="M277.985,448.149c-0.926-0.021-0.411,3.549-0.48,4.525
					c-0.146,2.047-0.804,4.035-1.04,6.071c-0.115,0.988-0.049,2.012,1.061,2.461c1.522,0.616,3.314,0.427,4.921,0.422
					c2.342-0.007,4.689-0.073,7.031-0.113c7.763-0.13,15.964,1.218,23.639-0.206c0.555-0.103,1.114-0.223,1.62-0.457
					c1.778-0.822,1.814-2.522,0.663-3.894c-0.997-1.191-2.756-1.924-4.131-2.685c-3.376-1.869-6.972-2.49-10.514-4.065
					c-2.896-1.288-7.775-3.255-11.085-3.463C288.47,446.668,284.73,448.302,277.985,448.149z"/>
			</defs>
			<clipPath id="SVGID_00000018223255312396971730000006050407395937716356_">
				<use xlink:href="#SVGID_00000135665105675942006660000012329461332569367213_"  style="overflow:visible;"/>
			</clipPath>
			
				<path style="clip-path:url(#SVGID_00000018223255312396971730000006050407395937716356_);fill-rule:evenodd;clip-rule:evenodd;fill:#FFFFFF;" d="
				M294.415,447.299c-0.475,0.695-0.982,1.371-1.444,2.074c-0.25,0.379-0.507,0.753-0.754,1.135
				c-0.206,0.319-0.41,0.638-0.629,0.948c-0.076,0.106-0.249,0.267-0.273,0.405c-0.023,0.129,0.103,0.268,0.178,0.358
				c0.041,0.05,0.156,0.246,0.222,0.263c0.317,0.084,0.798-0.688,0.939-0.881c0.521-0.707,1.065-1.399,1.552-2.131
				c0.53-0.797,1.019-1.667,1.653-2.388L294.415,447.299z M296.776,447.813c-0.469,1.315-1.322,2.542-2.024,3.738
				c-0.231,0.393-0.507,0.759-0.731,1.157c-0.038,0.069-0.214,0.301-0.21,0.386c0.005,0.084,0.19,0.233,0.249,0.292
				c0.243,0.242,0.357,0.476,0.646,0.178c0.068-0.071,0.153-0.178,0.208-0.256c0.086-0.119,0.148-0.22,0.22-0.348
				c0.443-0.782,0.828-1.597,1.294-2.367c0.5-0.826,1.048-1.632,1.478-2.497L296.776,447.813z M299.089,448.704
				c-0.199,0.321-0.327,0.711-0.471,1.069c-0.319,0.787-0.598,1.592-0.87,2.403c-0.136,0.404-0.278,0.803-0.422,1.203
				c-0.054,0.15-0.174,0.365-0.2,0.529c-0.047,0.286,0.263,0.51,0.427,0.646c0.059,0.048,0.166,0.18,0.251,0.123
				c0.137-0.092,0.2-0.371,0.247-0.531c0.122-0.417,0.24-0.832,0.39-1.236c0.184-0.492,0.366-0.984,0.558-1.471
				c0.326-0.827,0.733-1.604,1.025-2.45L299.089,448.704z"/>
		</g>
		<path style="fill-rule:evenodd;clip-rule:evenodd;fill:#D97054;" d="M280.826,362.701c0.283,0.693,0.819,1.751,1.201,2.879
			c0.378,1.118,0.593,2.278,0.828,2.981c0.049,0.119-0.009,0.256-0.128,0.305c-0.119,0.049-0.256-0.009-0.305-0.128
			c-0.329-0.676-0.87-1.746-1.223-2.891c-0.352-1.141-0.506-2.323-0.659-3.058c-0.024-0.079,0.021-0.163,0.099-0.187
			C280.718,362.579,280.802,362.623,280.826,362.701z"/>
		<path style="fill-rule:evenodd;clip-rule:evenodd;fill:#DF9F3E;" d="M279.221,255.534c0.571,1.638,0.567,3.507,0.693,5.257
			l0.41,3.123c0.378,2.124,0.904,4.243,1.336,6.337c0.741,3.587,1.946,7.055,2.628,10.656c0.641,3.386,0.801,6.923,1.756,10.24
			c0.37,1.283,0.794,2.83,1.576,3.934c0.379,0.534,1.372,0.932,1.531,1.591c0.218,0.897-1.014,1.648-0.738,2.59
			c0.306,1.046,1.47,1.596,1.593,2.735c0.084,0.779-0.329,1.517-0.576,2.232c-0.342,0.993-0.566,1.952-0.504,3.006
			c0.124,2.13,1,4.298,2.027,6.137c0.325,0.58,0.635,1.164,0.939,1.755c0.06,0.117,0.307,0.426,0.239,0.578
			c-0.174,0.388-0.848,0.566-1.213,0.66c-1.168,0.303-2.403,0.504-3.611,0.58l0.021,0.153l-2.697-0.003
			c-4.637,0.273-9.296,0.595-13.934,0.385c-3.489-0.159-7.123-0.496-10.599-0.03c-2.186,0.293-5.503,1.403-7.599,0.083
			c-0.877-0.553,0.721-1.94,0.6-2.695c-0.237-1.48-1.959-2.442-2.299-3.958c-0.391-1.748,0.741-3.079,0.898-4.695
			c0.037-0.377-0.395-0.757-0.584-1.037c-0.346-0.515-0.603-1.094-0.623-1.726c-0.068-2.031,0.281-4.028,0.094-6.072
			c-0.329-3.601-1.117-7.146-1.465-10.746c-0.09-0.935-0.113-1.871-0.114-2.808l-1.309,6.887l0.009,0.012l-0.022,0.055l-0.641,3.373
			c0.118,0.773,0.282,1.54,0.401,2.317c0.118,0.772,0.202,1.469-0.22,2.17c-0.554,0.92-1.146,1.667-0.957,2.818
			c0.111,0.679,0.671,1.307,0.578,2.017c-0.151,1.156-1.457,1.728-1.735,2.868c-0.285,1.17,0.603,2.035,0.629,3.158
			c0.03,1.252-0.822,2.425-1.109,3.623c-0.192,0.806-0.165,1.578,0.123,2.355c0.093,0.252,0.56,0.908,0.355,1.172
			c-0.32,0.41-1.694,0.398-2.409,0.372l-0.004,0.023l-28.209,0.133c-0.217,0.046-0.435,0.085-0.656,0.114
			c-0.477,0.066-0.956,0.092-1.437,0.08c-0.482-0.013-1.443-0.044-2.42-0.173h-0.134l0.002-0.019
			c-1.096-0.154-2.187-0.434-2.622-0.951c-0.266-0.317-0.419-1.458-0.432-1.9c-0.022-0.774,0.557-1.778,0.752-2.494
			c0.793-2.936,2.253-5.908,2.689-8.91c0.282-1.945-1.015-3.567-0.89-5.435c0.089-1.327,1.755-2.29,1.62-3.578
			c-0.099-0.939-1.524-1.29-1.415-2.389c0.149-1.508,1.439-3.121,2.184-4.374c1.02-1.715,1.787-3.567,2.234-5.513
			c1.061-4.623,1.184-9.576,1.83-14.277c0.307-2.24,0.683-4.473,1.062-6.704l1.365-11.004l60.227-0.003L279.221,255.534z"/>
		<g>
			<defs>
				<path id="SVGID_00000161594160651526408020000014290762887294483862_" d="M279.221,255.534c0.571,1.638,0.567,3.507,0.693,5.257
					l0.41,3.123c0.378,2.124,0.904,4.243,1.336,6.337c0.741,3.587,1.946,7.055,2.628,10.656c0.641,3.386,0.801,6.923,1.756,10.24
					c0.37,1.283,0.794,2.83,1.576,3.934c0.379,0.534,1.372,0.932,1.531,1.591c0.218,0.897-1.014,1.648-0.738,2.59
					c0.306,1.046,1.47,1.596,1.593,2.735c0.084,0.779-0.329,1.517-0.576,2.232c-0.342,0.993-0.566,1.952-0.504,3.006
					c0.124,2.13,1,4.298,2.027,6.137c0.325,0.58,0.635,1.164,0.939,1.755c0.06,0.117,0.307,0.426,0.239,0.578
					c-0.174,0.388-0.848,0.566-1.213,0.66c-1.168,0.303-2.403,0.504-3.611,0.58l0.021,0.153l-2.697-0.003
					c-4.637,0.273-9.296,0.595-13.934,0.385c-3.489-0.159-7.123-0.496-10.599-0.03c-2.186,0.293-5.503,1.403-7.599,0.083
					c-0.877-0.553,0.721-1.94,0.6-2.695c-0.237-1.48-1.959-2.442-2.299-3.958c-0.391-1.748,0.741-3.079,0.898-4.695
					c0.037-0.377-0.395-0.757-0.584-1.037c-0.346-0.515-0.603-1.094-0.623-1.726c-0.068-2.031,0.281-4.028,0.094-6.072
					c-0.329-3.601-1.117-7.146-1.465-10.746c-0.09-0.935-0.113-1.871-0.114-2.808l-1.309,6.887l0.009,0.012l-0.022,0.055
					l-0.641,3.373c0.118,0.773,0.282,1.54,0.401,2.317c0.118,0.772,0.202,1.469-0.22,2.17c-0.554,0.92-1.146,1.667-0.957,2.818
					c0.111,0.679,0.671,1.307,0.578,2.017c-0.151,1.156-1.457,1.728-1.735,2.868c-0.285,1.17,0.603,2.035,0.629,3.158
					c0.03,1.252-0.822,2.425-1.109,3.623c-0.192,0.806-0.165,1.578,0.123,2.355c0.093,0.252,0.56,0.908,0.355,1.172
					c-0.32,0.41-1.694,0.398-2.409,0.372l-0.004,0.023l-28.209,0.133c-0.217,0.046-0.435,0.085-0.656,0.114
					c-0.477,0.066-0.956,0.092-1.437,0.08c-0.482-0.013-1.443-0.044-2.42-0.173h-0.134l0.002-0.019
					c-1.096-0.154-2.187-0.434-2.622-0.951c-0.266-0.317-0.419-1.458-0.432-1.9c-0.022-0.774,0.557-1.778,0.752-2.494
					c0.793-2.936,2.253-5.908,2.689-8.91c0.282-1.945-1.015-3.567-0.89-5.435c0.089-1.327,1.755-2.29,1.62-3.578
					c-0.099-0.939-1.524-1.29-1.415-2.389c0.149-1.508,1.439-3.121,2.184-4.374c1.02-1.715,1.787-3.567,2.234-5.513
					c1.061-4.623,1.184-9.576,1.83-14.277c0.307-2.24,0.683-4.473,1.062-6.704l1.365-11.004l60.227-0.003L279.221,255.534z"/>
			</defs>
			<clipPath id="SVGID_00000117646251806508184200000005976308794203937679_">
				<use xlink:href="#SVGID_00000161594160651526408020000014290762887294483862_"  style="overflow:visible;"/>
			</clipPath>
			
				<path style="clip-path:url(#SVGID_00000117646251806508184200000005976308794203937679_);fill-rule:evenodd;clip-rule:evenodd;fill:#4F86A2;" d="
				M248.592,310.587c-1.416,1.645-4.642,2.765-5.995,3.213c-0.785,0.261-1.091,0.348-1.906,0.551
				c-1.028,0.255-2.048,0.491-3.09,0.671c-1.064,0.186-2.126,0.382-3.197,0.523c-6.15,0.813-12.156-0.29-18.184-1.397
				c-3.807-0.699-7.835-1.068-11.441-2.575c-3.023-1.264-5.205-4.201-7.691-6.296l9.818-5.931
				c4.156,3.988,10.151,4.433,15.523,5.356c4.914,0.844,9.444,1.556,14.446,1.926c1.242,0.092,3.548-0.097,4.637-0.705
				c3.342-1.866,10.247,1.779,7.262,1.629c-2.671-0.136,1.454,0.864,1.496,0.934l-0.977-6.246
				c3.671,3.129,10.197,4.261,14.638,3.785c7.272-0.78,14.73-0.695,22.013-1.425c2.372-0.237,4.771-0.301,7.125-0.67
				c1.496-0.235,3.422-1.55,3.421,0.924c0,1.022-0.28,1.994-0.532,2.975c-2.154,8.408-11.898,7.724-18.993,8.039
				c-2.489,0.111-4.929,0.153-7.418,0.001c-2.279-0.14-4.56-0.257-6.838-0.391c-4.561-0.267-12.007,2.302-13.782-3.706
				C248.813,311.387,248.691,310.989,248.592,310.587z"/>
			
				<path style="clip-path:url(#SVGID_00000117646251806508184200000005976308794203937679_);fill-rule:evenodd;clip-rule:evenodd;fill:#293D45;" d="
				M205.194,307.528c6.343,1.066,12.012,2.415,18.406,2.874c3.209,0.23,6.363,1.36,9.587,1.102c3.85-0.306,7.276-1.708,11.217-0.979
				c1.205,0.223,2.845,0.543,3.702,1.516c1.135,1.29,0.543,3.446-0.227,4.763c-2.427,4.158-6.744,4.697-11.158,5.143
				c-13.379,1.351-26.773-1.153-39.281-5.803L205.194,307.528z M248.859,309.825c3.389-0.771,8.151,1.889,11.611,1.632
				c2.581-0.192,5.12-0.685,7.716-0.742c3.288-0.071,6.563,0.493,9.854,0.469c2.514-0.017,5.455-0.93,7.972-0.981
				c2.879-0.057,6.305-2.032,9.086-1.262c0.922,0.255,1.562,2.996,1.919,4.072c0.451,1.36-0.868,3.038-1.779,3.879
				c-2.333,2.153-5.292,3.261-8.308,4.055c-11.099,2.921-22.844,2.886-33.574-1.152L248.859,309.825z"/>
			
				<path style="clip-path:url(#SVGID_00000117646251806508184200000005976308794203937679_);fill-rule:evenodd;clip-rule:evenodd;fill:#EEC177;" d="
				M282.772,282.259c-0.068-0.021-0.051-0.048-0.122-0.037c-0.224,0.033-0.381,0.238-0.575,0.354
				c-0.857,0.517-1.76,0.944-2.705,1.279c-1.187,0.422-2.423,0.725-3.643,0.964c-0.119,0.024-0.197,0.139-0.174,0.257
				c0.023,0.118,0.138,0.195,0.257,0.173c1.492-0.29,3.015-0.656,4.43-1.256c0.855-0.364,1.679-0.801,2.419-1.368
				c0.065-0.05,0.16-0.08,0.191-0.156c0.028-0.069-0.003-0.042-0.01-0.116c0.026-0.02,0.031-0.055,0.012-0.082
				C282.834,282.245,282.798,282.239,282.772,282.259z M234.978,300.624c0.24,0.118,0.473,0.237,0.722,0.33
				c0.991,0.371,2.038,0.557,3.087,0.685c0.975,0.119,1.964,0.165,2.952,0.165c0.984-0.001,1.964-0.06,2.939-0.099
				c0.101-0.001,0.182-0.084,0.181-0.186c-0.001-0.101-0.085-0.182-0.186-0.181c-0.971-0.017-1.948-0.043-2.928-0.068
				c-0.971-0.024-1.942-0.059-2.904-0.145c-1.028-0.09-2.039-0.266-3.05-0.482c-0.256-0.054-0.51-0.092-0.767-0.151
				c-0.036-0.013-0.076,0.007-0.089,0.042S234.942,300.611,234.978,300.624z M216.407,299.712c0.325,0.202,0.637,0.411,0.973,0.597
				c0.222,0.122,0.45,0.229,0.679,0.337c1.342,0.629,2.725,1.171,4.131,1.596c2.024,0.611,4.113,0.948,6.277,0.852
				c0.111-0.003,0.198-0.097,0.194-0.207c-0.004-0.111-0.098-0.198-0.208-0.193c-1.689,0.046-3.322-0.192-4.918-0.595
				c-1.685-0.425-3.319-1.06-4.942-1.731c-0.347-0.143-0.693-0.293-1.046-0.424c-0.358-0.132-0.719-0.236-1.08-0.357
				c-0.035-0.017-0.076-0.002-0.092,0.033C216.357,299.654,216.373,299.696,216.407,299.712z M288.823,299.874
				c-0.154,0.079-0.311,0.135-0.462,0.219c-1.269,0.715-2.606,1.414-4.084,1.87c-2.45,0.757-5.109,1.132-7.438,1.358
				c-0.065,0.007-0.113,0.063-0.107,0.128c0.005,0.065,0.063,0.113,0.128,0.108c2.354-0.179,5.058-0.459,7.534-1.214
				c1.516-0.463,3.023-1.006,4.157-1.978c0.136-0.115,0.239-0.249,0.356-0.381c0.03-0.024,0.036-0.067,0.013-0.098
				C288.897,299.856,288.853,299.851,288.823,299.874z M269.708,302.944c-0.96,0.201-1.944,0.305-2.934,0.409
				c-1.483,0.154-2.98,0.276-4.439,0.384c-0.076,0.005-0.134,0.072-0.128,0.148c0.004,0.076,0.071,0.134,0.148,0.129
				c1.465-0.089,2.975-0.13,4.46-0.326c0.996-0.13,1.974-0.342,2.927-0.61c0.037-0.009,0.06-0.047,0.051-0.085
				C269.783,302.957,269.745,302.934,269.708,302.944z M257.367,312.018c0.376-0.014,0.741,0.003,1.108,0.004
				c0.869,0.002,1.719,0.021,2.566,0.098c1.834,0.167,3.648,0.483,5.534,0.607c1.602,0.089,3.135,0.029,4.642-0.209
				c1.502-0.238,2.975-0.651,4.472-1.209c0.053-0.018,0.081-0.076,0.063-0.129c-0.019-0.052-0.076-0.08-0.129-0.062
				c-1.501,0.484-2.973,0.808-4.463,0.999c-1.484,0.19-2.985,0.248-4.554,0.138c-2.203-0.13-4.308-0.558-6.462-0.623
				c-0.65-0.018-1.309-0.03-1.967,0.063c-0.279,0.04-0.549,0.113-0.828,0.185c-0.038,0.004-0.065,0.04-0.06,0.078
				C257.294,311.996,257.329,312.022,257.367,312.018z M215.35,309.082l7.293,1.797c2.494,0.686,4.864,1.367,7.305,1.752
				c1.624,0.255,3.278,0.378,5.021,0.291c0.112-0.005,0.198-0.1,0.192-0.212c-0.005-0.112-0.1-0.199-0.212-0.193
				c-1.714,0.08-3.34-0.05-4.936-0.302c-2.426-0.384-4.782-1.056-7.262-1.734c-0.729-0.195-1.462-0.377-2.201-0.534
				c-1.717-0.365-3.454-0.64-5.169-1c-0.038-0.009-0.075,0.014-0.084,0.052C215.29,309.036,215.313,309.074,215.35,309.082z
				 M260.378,317.946c2.249,0.447,4.502,0.871,6.764,1.143c2.29,0.276,4.585,0.402,6.867,0.329c2.139-0.066,4.273-0.299,6.379-0.817
				c0.886-0.218,1.763-0.499,2.637-0.819c0.094-0.031,0.146-0.135,0.113-0.23c-0.031-0.095-0.135-0.146-0.23-0.113
				c-0.874,0.274-1.754,0.49-2.631,0.684c-2.085,0.463-4.176,0.728-6.283,0.806c-2.261,0.084-4.532-0.038-6.808-0.253
				c-2.26-0.213-4.525-0.511-6.784-0.868c-0.037-0.008-0.074,0.018-0.08,0.055C260.315,317.902,260.34,317.938,260.378,317.946z"/>
			<g style="clip-path:url(#SVGID_00000117646251806508184200000005976308794203937679_);">
				<defs>
					<path id="SVGID_00000119102139533745588610000014814352539142638978_" d="M282.772,282.259
						c-0.068-0.021-0.051-0.048-0.122-0.037c-0.224,0.033-0.381,0.238-0.575,0.354c-0.857,0.517-1.76,0.944-2.705,1.279
						c-1.187,0.422-2.423,0.725-3.643,0.964c-0.119,0.024-0.197,0.139-0.174,0.257c0.023,0.118,0.138,0.195,0.257,0.173
						c1.492-0.29,3.015-0.656,4.43-1.256c0.855-0.364,1.679-0.801,2.419-1.368c0.065-0.05,0.16-0.08,0.191-0.156
						c0.028-0.069-0.003-0.042-0.01-0.116c0.026-0.02,0.031-0.055,0.012-0.082C282.834,282.245,282.798,282.239,282.772,282.259z
						 M234.978,300.624c0.24,0.118,0.473,0.237,0.722,0.33c0.991,0.371,2.038,0.557,3.087,0.685
						c0.975,0.119,1.964,0.165,2.952,0.165c0.984-0.001,1.964-0.06,2.939-0.099c0.101-0.001,0.182-0.084,0.181-0.186
						c-0.001-0.101-0.085-0.182-0.186-0.181c-0.971-0.017-1.948-0.043-2.928-0.068c-0.971-0.024-1.942-0.059-2.904-0.145
						c-1.028-0.09-2.039-0.266-3.05-0.482c-0.256-0.054-0.51-0.092-0.767-0.151c-0.036-0.013-0.076,0.007-0.089,0.042
						S234.942,300.611,234.978,300.624z M216.407,299.712c0.325,0.202,0.637,0.411,0.973,0.597c0.222,0.122,0.45,0.229,0.679,0.337
						c1.342,0.629,2.725,1.171,4.131,1.596c2.024,0.611,4.113,0.948,6.277,0.852c0.111-0.003,0.198-0.097,0.194-0.207
						c-0.004-0.111-0.098-0.198-0.208-0.193c-1.689,0.046-3.322-0.192-4.918-0.595c-1.685-0.425-3.319-1.06-4.942-1.731
						c-0.347-0.143-0.693-0.293-1.046-0.424c-0.358-0.132-0.719-0.236-1.08-0.357c-0.035-0.017-0.076-0.002-0.092,0.033
						C216.357,299.654,216.373,299.696,216.407,299.712z M288.823,299.874c-0.154,0.079-0.311,0.135-0.462,0.219
						c-1.269,0.715-2.606,1.414-4.084,1.87c-2.45,0.757-5.109,1.132-7.438,1.358c-0.065,0.007-0.113,0.063-0.107,0.128
						c0.005,0.065,0.063,0.113,0.128,0.108c2.354-0.179,5.058-0.459,7.534-1.214c1.516-0.463,3.023-1.006,4.157-1.978
						c0.136-0.115,0.239-0.249,0.356-0.381c0.03-0.024,0.036-0.067,0.013-0.098C288.897,299.856,288.853,299.851,288.823,299.874z
						 M269.708,302.944c-0.96,0.201-1.944,0.305-2.934,0.409c-1.483,0.154-2.98,0.276-4.439,0.384
						c-0.076,0.005-0.134,0.072-0.128,0.148c0.004,0.076,0.071,0.134,0.148,0.129c1.465-0.089,2.975-0.13,4.46-0.326
						c0.996-0.13,1.974-0.342,2.927-0.61c0.037-0.009,0.06-0.047,0.051-0.085C269.783,302.957,269.745,302.934,269.708,302.944z
						 M257.367,312.018c0.376-0.014,0.741,0.003,1.108,0.004c0.869,0.002,1.719,0.021,2.566,0.098
						c1.834,0.167,3.648,0.483,5.534,0.607c1.602,0.089,3.135,0.029,4.642-0.209c1.502-0.238,2.975-0.651,4.472-1.209
						c0.053-0.018,0.081-0.076,0.063-0.129c-0.019-0.052-0.076-0.08-0.129-0.062c-1.501,0.484-2.973,0.808-4.463,0.999
						c-1.484,0.19-2.985,0.248-4.554,0.138c-2.203-0.13-4.308-0.558-6.462-0.623c-0.65-0.018-1.309-0.03-1.967,0.063
						c-0.279,0.04-0.549,0.113-0.828,0.185c-0.038,0.004-0.065,0.04-0.06,0.078C257.294,311.996,257.329,312.022,257.367,312.018z
						 M215.35,309.082l7.293,1.797c2.494,0.686,4.864,1.367,7.305,1.752c1.624,0.255,3.278,0.378,5.021,0.291
						c0.112-0.005,0.198-0.1,0.192-0.212c-0.005-0.112-0.1-0.199-0.212-0.193c-1.714,0.08-3.34-0.05-4.936-0.302
						c-2.426-0.384-4.782-1.056-7.262-1.734c-0.729-0.195-1.462-0.377-2.201-0.534c-1.717-0.365-3.454-0.64-5.169-1
						c-0.038-0.009-0.075,0.014-0.084,0.052C215.29,309.036,215.313,309.074,215.35,309.082z M260.378,317.946
						c2.249,0.447,4.502,0.871,6.764,1.143c2.29,0.276,4.585,0.402,6.867,0.329c2.139-0.066,4.273-0.299,6.379-0.817
						c0.886-0.218,1.763-0.499,2.637-0.819c0.094-0.031,0.146-0.135,0.113-0.23c-0.031-0.095-0.135-0.146-0.23-0.113
						c-0.874,0.274-1.754,0.49-2.631,0.684c-2.085,0.463-4.176,0.728-6.283,0.806c-2.261,0.084-4.532-0.038-6.808-0.253
						c-2.26-0.213-4.525-0.511-6.784-0.868c-0.037-0.008-0.074,0.018-0.08,0.055C260.315,317.902,260.34,317.938,260.378,317.946z"
						/>
				</defs>
				<clipPath id="SVGID_00000022518870596090892260000001229448545322745495_">
					<use xlink:href="#SVGID_00000119102139533745588610000014814352539142638978_"  style="overflow:visible;"/>
				</clipPath>
				
					<path style="clip-path:url(#SVGID_00000022518870596090892260000001229448545322745495_);fill-rule:evenodd;clip-rule:evenodd;fill:#406372;" d="
					M209.965,307.613c3.361-1.596,7.993-0.289,11.391,0.449c5.671,1.23,11.366,1.795,17.144,2.224
					c6.379,0.474,12.634-0.312,18.985-0.873c4.879-0.431,9.865-0.249,14.748,0.068c2.002,0.13,4.089,0.092,6.051,0.569
					c4.271,1.038,3.283,5.486,0.19,7.387c-5.041,3.095-12.115,2.469-17.754,2.412c-7.164-0.074-14.297-0.199-21.457,0.169
					c-7.422,0.381-15.185,1.163-22.503-0.564c-4.826-1.139-12.236-3.543-14.256-8.636"/>
			</g>
		</g>
		<path style="fill-rule:evenodd;clip-rule:evenodd;fill:#E58E6B;" d="M276.545,152.348c6.799-1.183,22.181-1.188,53.371,9.367
			c0,0,4.007-25.594,6.238-33.792c0.684-2.516-2.398-1.69-4.02-6.711c-1.322-4.089-1.486-10.817-1.486-10.817l21.432-0.008
			c0,0-1.232,10.05-1.894,11.871c-0.723,1.985-1.546,3.353-2.973,4.333c-1.444,0.991-0.529,1.826-0.029,7.852
			c0.782,9.438,3.783,30.691,1.023,38.412c0,0-0.163,4.391-4.924,4.587c0,0-28.607,6.561-59.106,2.677
			c-0.375,10.101-2.756,26.51-4.145,40.665c0.095,0.455,0.216,0.902,0.376,1.337c0.426,1.158,1.236,2.474,1.102,3.759
			c-0.121,1.17-1.432,1.858-1.833,2.927c-0.491,1.307,0.747,2.566,0.592,3.907c-0.145,1.248-1.373,2.119-1.396,3.438
			c-0.027,1.634,2.08,2.294,2.021,3.788c-0.033,0.844-1.475,1.095-2.076,1.349c-0.033,0.014-0.122,0.053-0.228,0.104l-0.02,0.585
			c-0.008,0.217-0.014,0.436-0.021,0.653l-0.002,0.068c0.188,0.247,0.353,0.493,0.332,0.762c-0.033,0.421-0.209,0.744-0.379,1.044
			c-0.014,0.603-0.025,1.207-0.034,1.811c0.381,0.502,2.941,2.147,2.362,2.715c-0.548,0.54-1.589,0.564-2.385,0.43
			c0,1.025,0.008,2.049,0.023,3.076c0.013,0.832-29.884,0.546-29.884,0.546l-0.068-0.287l-0.068,0.287
			c0,0-29.897,0.286-29.884-0.546c0.013-0.89,0.022-1.779,0.027-2.666c-0.799-0.059-1.615-0.305-1.884-1.099
			c-0.669-1.979,0.785-4.855,1.126-6.74c0.4-2.205,0.005-4.963-0.19-7.186c-0.147-1.655-2.33-1.961-2.444-3.338
			c-0.063-0.759,0.797-1.246,0.919-1.962c0.123-0.714-0.923-1.126-0.804-1.874c0.158-0.985,1.118-1.772,1.432-2.74
			c0.554-1.706,0.634-3.654,0.66-5.465c-1.077-14.836-2.485-27.685-2.39-36.95c0.001-0.087-0.134-1.098-0.51-2.628
			c-31.13,4.363-60.822-2.447-60.822-2.447c-4.761-0.195-4.925-4.587-4.925-4.587c-2.76-7.721,0.241-28.974,1.023-38.412
			c0.501-6.026,1.415-6.861-0.029-7.852c-1.427-0.979-2.25-2.348-2.973-4.333c-0.662-1.821-1.894-11.871-1.894-11.871l21.432,0.008
			c0,0-0.164,6.728-1.486,10.817c-1.622,5.021-4.704,4.195-4.019,6.711c2.229,8.198,6.238,33.792,6.238,33.792
			c46.845-15.854,60.182-8.789,60.182-8.789l0.002,0.206c13.774-1.993,18.726-0.118,24.161,0.725
			C259.477,151.973,264.752,150.721,276.545,152.348z"/>
		<g>
			<defs>
				<path id="SVGID_00000108303032296439185850000017533253844397764996_" d="M276.545,152.348
					c6.799-1.183,22.181-1.188,53.371,9.367c0,0,4.007-25.594,6.238-33.792c0.684-2.516-2.398-1.69-4.02-6.711
					c-1.322-4.089-1.486-10.817-1.486-10.817l21.432-0.008c0,0-1.232,10.05-1.894,11.871c-0.723,1.985-1.546,3.353-2.973,4.333
					c-1.444,0.991-0.529,1.826-0.029,7.852c0.782,9.438,3.783,30.691,1.023,38.412c0,0-0.163,4.391-4.924,4.587
					c0,0-28.607,6.561-59.106,2.677c-0.375,10.101-2.756,26.51-4.145,40.665c0.095,0.455,0.216,0.902,0.376,1.337
					c0.426,1.158,1.236,2.474,1.102,3.759c-0.121,1.17-1.432,1.858-1.833,2.927c-0.491,1.307,0.747,2.566,0.592,3.907
					c-0.145,1.248-1.373,2.119-1.396,3.438c-0.027,1.634,2.08,2.294,2.021,3.788c-0.033,0.844-1.475,1.095-2.076,1.349
					c-0.033,0.014-0.122,0.053-0.228,0.104l-0.02,0.585c-0.008,0.217-0.014,0.436-0.021,0.653l-0.002,0.068
					c0.188,0.247,0.353,0.493,0.332,0.762c-0.033,0.421-0.209,0.744-0.379,1.044c-0.014,0.603-0.025,1.207-0.034,1.811
					c0.381,0.502,2.941,2.147,2.362,2.715c-0.548,0.54-1.589,0.564-2.385,0.43c0,1.025,0.008,2.049,0.023,3.076
					c0.013,0.832-29.884,0.546-29.884,0.546l-0.068-0.287l-0.068,0.287c0,0-29.897,0.286-29.884-0.546
					c0.013-0.89,0.022-1.779,0.027-2.666c-0.799-0.059-1.615-0.305-1.884-1.099c-0.669-1.979,0.785-4.855,1.126-6.74
					c0.4-2.205,0.005-4.963-0.19-7.186c-0.147-1.655-2.33-1.961-2.444-3.338c-0.063-0.759,0.797-1.246,0.919-1.962
					c0.123-0.714-0.923-1.126-0.804-1.874c0.158-0.985,1.118-1.772,1.432-2.74c0.554-1.706,0.634-3.654,0.66-5.465
					c-1.077-14.836-2.485-27.685-2.39-36.95c0.001-0.087-0.134-1.098-0.51-2.628c-31.13,4.363-60.822-2.447-60.822-2.447
					c-4.761-0.195-4.925-4.587-4.925-4.587c-2.76-7.721,0.241-28.974,1.023-38.412c0.501-6.026,1.415-6.861-0.029-7.852
					c-1.427-0.979-2.25-2.348-2.973-4.333c-0.662-1.821-1.894-11.871-1.894-11.871l21.432,0.008c0,0-0.164,6.728-1.486,10.817
					c-1.622,5.021-4.704,4.195-4.019,6.711c2.229,8.198,6.238,33.792,6.238,33.792c46.845-15.854,60.182-8.789,60.182-8.789
					l0.002,0.206c13.774-1.993,18.726-0.118,24.161,0.725C259.477,151.973,264.752,150.721,276.545,152.348z"/>
			</defs>
			<clipPath id="SVGID_00000172416971576221176260000002378945195751509393_">
				<use xlink:href="#SVGID_00000108303032296439185850000017533253844397764996_"  style="overflow:visible;"/>
			</clipPath>
			
				<path style="clip-path:url(#SVGID_00000172416971576221176260000002378945195751509393_);fill-rule:evenodd;clip-rule:evenodd;fill:#293D45;" d="
				M227.616,150.43c-1.076,8.018-4.936,26.448-13.382,33.829c-3.226,2.818-0.429-1.577-1.639,2.521
				c-3.754,12.716-4.855,23.167-6.721,36.287c-0.864,6.077-1.237,11.978-1.124,18.097c0.052,2.788,0.032,5.878,1.172,8.487
				c4.432,10.15,17.414,8.782,26.475,9.868c5.207,0.624,10.615,0.392,15.739,1.564c12.492,2.858,31.565,12.138,40.775-1.81
				c1.36-2.059,2.418-4.336,3.197-6.676c3.87-11.626,0.343-23.842-2.104-35.349c-1.872-8.804,0.049-17.728-2.203-26.525
				c-0.454-1.775-1.691-3.209-2.232-4.953c-0.454-1.462-0.4,0.027-1.115-1.303c-2.504-4.65-5.68-11.574-7.233-16.869
				c-0.651-2.224-1.651-12.411-1.158-15.325c0.383-2.272,2.197-5.51-0.319-7.142c-2.715-1.762-10.466-1.03-12.49,1.362
				c-1.14,1.348-0.519,2.921-0.876,4.608c-0.934,4.401-2.221,17.039-10.65,17.471c-10.147,0.521-10.694-15.655-11.641-19.05"/>
			<g style="clip-path:url(#SVGID_00000172416971576221176260000002378945195751509393_);">
				<defs>
					<path id="SVGID_00000120532097628258104650000006516161090112156560_" d="M227.616,150.43
						c-1.076,8.018-4.936,26.448-13.382,33.829c-3.226,2.818-0.429-1.577-1.639,2.521c-3.754,12.716-4.855,23.167-6.721,36.287
						c-0.864,6.077-1.237,11.978-1.124,18.097c0.052,2.788,0.032,5.878,1.172,8.487c4.432,10.15,17.414,8.782,26.475,9.868
						c5.207,0.624,10.615,0.392,15.739,1.564c12.492,2.858,31.565,12.138,40.775-1.81c1.36-2.059,2.418-4.336,3.197-6.676
						c3.87-11.626,0.343-23.842-2.104-35.349c-1.872-8.804,0.049-17.728-2.203-26.525c-0.454-1.775-1.691-3.209-2.232-4.953
						c-0.454-1.462-0.4,0.027-1.115-1.303c-2.504-4.65-5.68-11.574-7.233-16.869c-0.651-2.224-1.651-12.411-1.158-15.325
						c0.383-2.272,2.197-5.51-0.319-7.142c-2.715-1.762-10.466-1.03-12.49,1.362c-1.14,1.348-0.519,2.921-0.876,4.608
						c-0.934,4.401-2.221,17.039-10.65,17.471c-10.147,0.521-10.694-15.655-11.641-19.05"/>
				</defs>
				<clipPath id="SVGID_00000139266045365890973750000009772067175656589733_">
					<use xlink:href="#SVGID_00000120532097628258104650000006516161090112156560_"  style="overflow:visible;"/>
				</clipPath>
				
					<path style="clip-path:url(#SVGID_00000139266045365890973750000009772067175656589733_);fill-rule:evenodd;clip-rule:evenodd;fill:#9DBBC5;" d="
					M211.565,193.671c5.96-2.62,13.625-1.873,19.881-1.062c5.769,0.748,11.629,1.117,17.36,2.13
					c6.465,1.142,11.982,2.73,18.567,1.752c5.113-0.76,9.539-1.311,14.737-1.207c1.529,0.03,2.955,0.175,4.47,0.398
					c0.173,0.026,1.378-0.027,1.501,0.115c1.158,1.336,0.788,4.463,0.693,6.046c-0.304,4.983-0.82,10.035-1.508,14.983
					c-0.182,1.317-0.428,2.656-0.4,3.991c0.004,0.16,0.124,1.354-0.024,1.451c-0.899,0.591-2.88,0.176-3.88,0.084
					c-3.583-0.328-7.117-1.388-10.64-2.101c-6.093-1.236-11.614,0.422-17.683-0.045c-5.004-0.385-10.237-2.308-15.261-1.669
					c-5.168,0.657-10.337,1.904-15.584,1.748c-7.491-0.22-14.845-4.022-21.606-6.823L211.565,193.671z"/>
				
					<path style="clip-path:url(#SVGID_00000139266045365890973750000009772067175656589733_);fill-rule:evenodd;clip-rule:evenodd;fill:#4F86A2;" d="
					M236.952,150.999c0.966,4.982,1.138,10.323,3.42,14.972c1.007,2.051,2.291,4.261,3.995,5.818
					c0.975,0.892,2.099,1.618,3.336,2.099c0.984,0.383,2.03,0.617,3.081,0.721c6.887,0.683,9.872-6.063,12.572-11.079
					c2.688-4.994,5.385-11.964,1.041-16.807L236.952,150.999z M229.403,150.542c0.054,2.586,0.464,5.114,0.365,7.718
					c-0.204,5.362-1.693,10.342-3.513,15.326c-1.003,2.745-2.158,5.594-3.882,7.975c-1.871,2.585-4.203,4.179-6.903,5.783
					c-0.211,0.125-1.924,1.393-2.223,1.212c-0.897-0.546-1.45-3.165-1.743-4.076c-0.466-1.449-0.718-2.725-0.163-4.179
					c1.328-3.484,4.114-6.329,6.071-9.451c1.688-2.691,2.545-5.446,3.283-8.526L229.403,150.542z M286.947,193.17
					c-3.177-0.814-5.512-4.514-7.295-7.023c-5.317-7.48-8.344-16.318-9.846-25.316c-0.485-2.911-1.114-5.862-1.281-8.812
					c-0.052-0.931-0.523-2.493,0.484-3.06c1.815-1.021,6.56-1.454,8.07,0.38c1.611,1.958,2.078,5.322,2.514,7.731
					c1.247,6.902,2.202,13.713,3.919,20.525c1.056,4.189,1.788,7.966,4.806,11.261L286.947,193.17z"/>
			</g>
		</g>
		<path style="fill-rule:evenodd;clip-rule:evenodd;fill:#E58E6B;" d="M160.766,126.677c5.733-3.492,8.971-11.234,9.145-12.637
			c0.045-0.357-1.161-0.476-1.456-0.77c-0.182-0.181-0.467-0.179-0.705-0.15c-0.504,0.06-1.477,0.331-1.867,0.721
			c-0.595,0.597-0.621,1.942-0.838,2.695"/>
		<path style="fill-rule:evenodd;clip-rule:evenodd;fill:#E58E6B;" d="M336.206,126.677c-5.733-3.492-8.971-11.234-9.146-12.637
			c-0.044-0.357,1.162-0.476,1.457-0.77c0.181-0.181,0.467-0.179,0.705-0.15c0.504,0.06,1.477,0.331,1.867,0.721
			c0.595,0.597,0.621,1.942,0.838,2.695"/>
		<rect x="101.382" y="110.105" style="fill-rule:evenodd;clip-rule:evenodd;fill:#848484;" width="294.402" height="4.944"/>
		<rect x="119.083" y="81.379" style="fill-rule:evenodd;clip-rule:evenodd;fill:#293D45;" width="15.916" height="62.397"/>
		<rect x="362.633" y="83.851" style="fill-rule:evenodd;clip-rule:evenodd;fill:#293D45;" width="15.916" height="62.397"/>
		<rect x="109.975" y="94.621" style="fill-rule:evenodd;clip-rule:evenodd;fill:#293D45;" width="9.108" height="40.857"/>
		<rect x="378.55" y="97.094" style="fill-rule:evenodd;clip-rule:evenodd;fill:#293D45;" width="9.108" height="40.857"/>
		<path style="fill-rule:evenodd;clip-rule:evenodd;fill:#E58E6B;" d="M233.939,120.165c-0.022-0.568-0.035-1.158-0.04-1.77
			c0,0-3.173-25.592,17.032-25.938c4.237-0.073,12.487-5.019,16.524,2.182c1.995,3.559,2.254,12.223,1.879,21.699
			c-0.044,1.136-0.106,2.207-0.181,3.216c1.188-0.535,2.5-0.467,3.25,0.946c0.24,0.452,0.411,0.922,0.49,1.428
			c0.38,2.422-2.245,4.704-4.737,5.095c-1.374,6.62-3.561,9.1-4.985,11.471c-1.366,2.275-5.917,7.947-11.135,7.813
			c0,0-6.783,0.686-12.761-9.421c-1.493-2.524-3.413-4.905-4.509-9.805c-2.692,0.06-5.985-2.461-5.562-5.153
			c0.079-0.506,0.25-0.976,0.49-1.428C230.661,118.674,232.573,119.093,233.939,120.165z"/>
		<g>
			<defs>
				<path id="SVGID_00000011013548552703549340000004345601166700573084_" d="M233.939,120.165c-0.022-0.568-0.035-1.158-0.04-1.77
					c0,0-3.173-25.592,17.032-25.938c4.237-0.073,12.487-5.019,16.524,2.182c1.995,3.559,2.254,12.223,1.879,21.699
					c-0.044,1.136-0.106,2.207-0.181,3.216c1.188-0.535,2.5-0.467,3.25,0.946c0.24,0.452,0.411,0.922,0.49,1.428
					c0.38,2.422-2.245,4.704-4.737,5.095c-1.374,6.62-3.561,9.1-4.985,11.471c-1.366,2.275-5.917,7.947-11.135,7.813
					c0,0-6.783,0.686-12.761-9.421c-1.493-2.524-3.413-4.905-4.509-9.805c-2.692,0.06-5.985-2.461-5.562-5.153
					c0.079-0.506,0.25-0.976,0.49-1.428C230.661,118.674,232.573,119.093,233.939,120.165z"/>
			</defs>
			<clipPath id="SVGID_00000054226007884240484250000002394000857567656576_">
				<use xlink:href="#SVGID_00000011013548552703549340000004345601166700573084_"  style="overflow:visible;"/>
			</clipPath>
			
				<path style="clip-path:url(#SVGID_00000054226007884240484250000002394000857567656576_);fill-rule:evenodd;clip-rule:evenodd;fill:#4F86A2;" d="
				M263.899,100.974c2.064,6.347,4.005,12.168,5.483,17.629c0.564,2.084,4.915-1.402,3.884-9.413
				c-0.741-5.767-2.49-10.351-8.593-12.386"/>
		</g>
		<path style="fill-rule:evenodd;clip-rule:evenodd;fill:#293D45;" d="M220.005,229.48c0.007,0.055,0.011,0.111,0.014,0.166
			L220.005,229.48c-0.174-1.617-1.414-3.514-2.055-4.977c-0.757-1.731-1.02-3.649-1.337-5.498
			c-0.662-3.879-1.307-7.737-1.477-11.677c-0.145-3.415,0.205-6.862-0.101-10.272c-0.266-2.954-0.552-5.929-1.002-8.861
			c-0.178-1.162-0.779-3.156,0.004-4.255c0.364-0.51,1.486-0.564,2.022-0.935L220.005,229.48z M282.836,181.561
			c0.606,1.051,1.041,2.185,1.648,3.226c0.569,0.976,1.187,1.703,1.317,2.88c0.245,2.199-0.679,4.446-1.34,6.494
			c-0.536,1.661-0.855,3.376-1.179,5.087c-1.962,10.338-5.265,20.399-7.787,30.618L282.836,181.561z M218.528,242.751
			c0.072,0.357,0.04,0.745-0.171,1.191L218.528,242.751c-0.23-1.14-1.524-1.96-1.437-3.333c0.185-2.889,2.536-5.448,3.096-8.241
			L218.528,242.751z M234.638,247.518c2.614-0.368,5.24-0.658,7.883-0.926c8.543-0.867,17.064-1.197,25.555,0.286
			c0.628,0.11,2.051,0.379,2.705,0.533c0.849,0.201,1.729,0.459,2.563,0.716c0.398,0.122,0.818,0.265,1.25,0.428l4.136,0.107
			c0.123,0.653,0.983,1.962,1.386,3.08c1.731,1.546,2.884,3.514,2.532,5.883l0.034,1.93c-9.761-1.2-19.441-0.292-29.207,0.615
			c-7.905,0.733-16.052,1.803-23.95,0.535c-4.009-0.643-8.321-1.329-12.394-0.934c-1.612,0.158-4.753,0.987-4.714-1.625
			c0.023-1.528,0.679-3.779,1.783-4.868c0.798-0.788,1.853-1.206,2.883-1.6l0.041-0.046c1.179-1.317,2.11-2.69,2.258-4.511
			L234.638,247.518z"/>
		<g>
			<defs>
				<path id="SVGID_00000007427841156076828350000004748885737557891486_" d="M220.005,229.48c0.007,0.055,0.011,0.111,0.014,0.166
					L220.005,229.48c-0.174-1.617-1.414-3.514-2.055-4.977c-0.757-1.731-1.02-3.649-1.337-5.498
					c-0.662-3.879-1.307-7.737-1.477-11.677c-0.145-3.415,0.205-6.862-0.101-10.272c-0.266-2.954-0.552-5.929-1.002-8.861
					c-0.178-1.162-0.779-3.156,0.004-4.255c0.364-0.51,1.486-0.564,2.022-0.935L220.005,229.48z M282.836,181.561
					c0.606,1.051,1.041,2.185,1.648,3.226c0.569,0.976,1.187,1.703,1.317,2.88c0.245,2.199-0.679,4.446-1.34,6.494
					c-0.536,1.661-0.855,3.376-1.179,5.087c-1.962,10.338-5.265,20.399-7.787,30.618L282.836,181.561z M218.528,242.751
					c0.072,0.357,0.04,0.745-0.171,1.191L218.528,242.751c-0.23-1.14-1.524-1.96-1.437-3.333c0.185-2.889,2.536-5.448,3.096-8.241
					L218.528,242.751z M234.638,247.518c2.614-0.368,5.24-0.658,7.883-0.926c8.543-0.867,17.064-1.197,25.555,0.286
					c0.628,0.11,2.051,0.379,2.705,0.533c0.849,0.201,1.729,0.459,2.563,0.716c0.398,0.122,0.818,0.265,1.25,0.428l4.136,0.107
					c0.123,0.653,0.983,1.962,1.386,3.08c1.731,1.546,2.884,3.514,2.532,5.883l0.034,1.93c-9.761-1.2-19.441-0.292-29.207,0.615
					c-7.905,0.733-16.052,1.803-23.95,0.535c-4.009-0.643-8.321-1.329-12.394-0.934c-1.612,0.158-4.753,0.987-4.714-1.625
					c0.023-1.528,0.679-3.779,1.783-4.868c0.798-0.788,1.853-1.206,2.883-1.6l0.041-0.046c1.179-1.317,2.11-2.69,2.258-4.511
					L234.638,247.518z"/>
			</defs>
			<clipPath id="SVGID_00000044871936582930577530000008806153218109712527_">
				<use xlink:href="#SVGID_00000007427841156076828350000004748885737557891486_"  style="overflow:visible;"/>
			</clipPath>
			
				<path style="clip-path:url(#SVGID_00000044871936582930577530000008806153218109712527_);fill-rule:evenodd;clip-rule:evenodd;fill:#4F86A2;" d="
				M236.952,150.999c0.966,4.982,1.138,10.323,3.42,14.972c1.007,2.051,2.291,4.261,3.995,5.818
				c0.975,0.892,2.099,1.618,3.336,2.099c0.984,0.383,2.03,0.617,3.081,0.721c6.887,0.683,9.872-6.063,12.572-11.079
				c2.688-4.994,5.385-11.964,1.041-16.807L236.952,150.999z M229.403,150.542c0.054,2.586,0.464,5.114,0.365,7.718
				c-0.204,5.362-1.693,10.342-3.513,15.326c-1.003,2.745-2.158,5.594-3.882,7.975c-1.871,2.585-4.203,4.179-6.903,5.783
				c-0.211,0.125-1.924,1.393-2.223,1.212c-0.897-0.546-1.45-3.165-1.743-4.076c-0.466-1.449-0.718-2.725-0.163-4.179
				c1.328-3.484,4.114-6.329,6.071-9.451c1.688-2.691,2.545-5.446,3.283-8.526L229.403,150.542z M286.947,193.17
				c-3.177-0.814-5.512-4.514-7.295-7.023c-5.317-7.48-8.344-16.318-9.846-25.316c-0.485-2.911-1.114-5.862-1.281-8.812
				c-0.052-0.931-0.523-2.493,0.484-3.06c1.815-1.021,6.56-1.454,8.07,0.38c1.611,1.958,2.078,5.322,2.514,7.731
				c1.247,6.902,2.202,13.713,3.919,20.525c1.056,4.189,1.788,7.966,4.806,11.261L286.947,193.17z"/>
			
				<path style="clip-path:url(#SVGID_00000044871936582930577530000008806153218109712527_);fill-rule:evenodd;clip-rule:evenodd;fill:#9DBBC5;" d="
				M211.565,193.671c5.96-2.62,13.625-1.873,19.881-1.062c5.769,0.748,11.629,1.117,17.36,2.13
				c6.465,1.142,11.982,2.73,18.567,1.752c5.113-0.76,9.539-1.311,14.737-1.207c1.529,0.03,2.955,0.175,4.47,0.398
				c0.173,0.026,1.378-0.027,1.501,0.115c1.158,1.336,0.788,4.463,0.693,6.046c-0.304,4.983-0.82,10.035-1.508,14.983
				c-0.182,1.317-0.428,2.656-0.4,3.991c0.004,0.16,0.124,1.354-0.024,1.451c-0.899,0.591-2.88,0.176-3.88,0.084
				c-3.583-0.328-7.117-1.388-10.64-2.101c-6.093-1.236-11.614,0.422-17.683-0.045c-5.004-0.385-10.237-2.308-15.261-1.669
				c-5.168,0.657-10.337,1.904-15.584,1.748c-7.491-0.22-14.845-4.022-21.606-6.823L211.565,193.671z"/>
		</g>
		<path style="fill-rule:evenodd;clip-rule:evenodd;fill:#D97054;" d="M265.207,129.002c0.004,0.502-0.033,1.023-0.252,1.481
			c-1.343,2.815-5.529,1.29-5.68-1.508c-0.113-2.091,2.145-4.131,4.307-2.993c1.036,0.545,1.433,1.403,1.601,2.498L265.207,129.002z
			 M237.89,129.002c-0.004,0.502,0.034,1.023,0.253,1.481c1.343,2.815,5.529,1.29,5.68-1.508c0.113-2.091-2.145-4.131-4.307-2.993
			c-1.036,0.545-1.433,1.403-1.601,2.498L237.89,129.002z"/>
		<path style="fill-rule:evenodd;clip-rule:evenodd;fill:#4F86A2;" d="M233.922,119.213c-0.123-1.337-0.615-4.197-0.745-5.523
			c-0.157-1.605-0.173-3.222-0.15-4.832c0.034-2.284,0.143-4.71,0.65-6.955c1.187-5.253,5.064-9.965,9.96-12.73
			c4.625-2.613,9.74-4.66,15.121-5.34c0.999-0.126,1.977-0.341,2.967-0.521c0.268-0.048,0.947-0.302,1.226-0.208
			c0.3,0.101,0.282,0.592,0.286,0.82c0.011,0.85-0.906,2.191,0.534,2.362c1.765,0.21,3.871-0.179,5.604-0.682
			c0.727-0.211,5.695-2.533,6.376-1.982c0.606,0.491,2.149,11.972-5.84,17.913c-2.637,1.96-17.447,4.74-32.578,2.459
			c-0.905-0.136-1.474,6.576-2.755,12.109"/>
		<path style="fill-rule:evenodd;clip-rule:evenodd;fill:#FFFFFF;" d="M248.057,261.868c-0.262,0.037-0.535,0.121-0.806,0.218
			c-0.499,0.179-0.986,0.42-1.344,0.628c-1.143,0.662-2.225,1.603-3.183,2.66c-0.962,1.062-1.797,2.244-2.44,3.391
			c-0.285,0.472-0.555,0.961-0.798,1.462c-0.161,0.33-0.314,0.661-0.435,1.005c-0.02,0.054-0.024,0.51-0.129,0.697
			c0.179,0.002,0.393-0.104,0.613-0.223c0.584-0.313,1.177-0.848,1.428-1.053c1.276-1.053,2.537-2.089,3.632-3.285
			c0.716-0.781,1.361-1.63,1.892-2.598l1.215-2.309L248.057,261.868z M249.258,262.208c0.017,0.069,0.033,0.134,0.048,0.187
			c0.13,0.519,0.264,1.023,0.429,1.52c0.108,0.326,0.231,0.648,0.377,0.97c0.561,1.238,1.255,2.455,2.075,3.576
			c0.818,1.117,1.76,2.138,2.821,2.987c0.311,0.246,0.681,0.481,1.076,0.644c0.376,0.153,0.773,0.24,1.16,0.204
			c0.733-0.069,1.149-0.402,1.273-0.869c0.129-0.493-0.054-1.095-0.441-1.632c-1.441-1.992-3.515-3.388-5.53-4.862
			c-0.883-0.646-1.76-1.301-2.563-2.026C249.732,262.682,249.49,262.448,249.258,262.208z M246.95,265.243
			c-0.54,0.943-1.184,1.778-1.894,2.549c-1.118,1.214-2.402,2.267-3.703,3.336c-0.312,0.256-1.123,0.977-1.834,1.267
			c-0.456,0.185-0.881,0.19-1.184-0.043c-0.07-0.051-0.142-0.162-0.15-0.339c-0.011-0.262,0.171-0.9,0.194-0.988
			c0.124-0.475,0.287-0.941,0.484-1.395c0.196-0.446,0.427-0.876,0.658-1.299c0.693-1.187,1.588-2.409,2.614-3.499
			c1.033-1.098,2.197-2.064,3.419-2.74c0.471-0.261,1.136-0.594,1.802-0.747c0.344-0.078,0.686-0.11,1-0.077l0.008-0.016
			l0.017-0.031l-0.101-0.125c-0.052-0.065-0.159-0.114-0.153-0.198l0.002-0.037l0.016-0.01c0.07-0.052,0.149-0.11,0.203-0.178
			c0.01-0.012-0.029-0.067,0.009-0.099c0.035-0.029,0.089,0.013,0.098,0.008c0.06-0.038,0.159-0.128,0.214-0.177l0.015-0.014
			l0.022,0.002c0.055,0.004,0.077,0.078,0.116,0.117c0.389,0.391,0.81,0.742,1.231,1.101c0.932,0.798,1.922,1.548,2.919,2.296
			c1.018,0.762,2.021,1.546,2.967,2.375c1.049,0.918,2.014,1.907,2.786,3.062c0.508,0.757,0.687,1.605,0.486,2.278
			c-0.21,0.702-0.805,1.26-1.918,1.329c-0.394,0.024-0.795-0.048-1.181-0.186c-0.544-0.194-1.06-0.518-1.475-0.863
			c-1.086-0.895-2.048-1.966-2.878-3.134c-0.825-1.16-1.52-2.416-2.077-3.693c-0.148-0.338-0.271-0.677-0.381-1.019
			c-0.08-0.252-0.153-0.506-0.22-0.762c-0.079,1.198-0.346,2.409-0.44,3.57c-0.059,0.715-0.033,1.435,0.061,2.147
			c0.093,0.715,0.254,1.423,0.477,2.106c0.289,0.894,0.692,1.733,1.148,2.547c0.696,1.24,1.515,2.418,2.26,3.623
			c1.021,1.652,1.991,3.288,2.834,4.997c0.561,1.137,1.063,2.308,1.507,3.524c0.024,0.061-0.007,0.129-0.067,0.153
			c-0.061,0.024-0.129-0.007-0.153-0.067c-0.608-1.489-1.316-2.895-2.081-4.271c-0.764-1.377-1.587-2.724-2.454-4.074
			c-0.771-1.199-1.616-2.37-2.336-3.604c-0.489-0.839-0.92-1.708-1.236-2.634c-0.244-0.717-0.427-1.46-0.532-2.212
			c-0.106-0.757-0.132-1.524-0.073-2.284c0.098-1.228,0.389-2.512,0.447-3.777c0.001-0.042,0.003-0.085,0.004-0.127
			c-0.339,0.664-0.59,1.367-0.8,2.088c-0.669,2.283-0.894,4.764-1.699,6.972c-0.414,1.077-0.906,2.12-1.441,3.142
			c-0.793,1.51-1.673,2.977-2.465,4.48c-0.45,0.834-0.873,1.679-1.289,2.528c-0.975,1.994-1.893,4.011-2.891,5.998
			c-0.055,0.116-0.194,0.165-0.311,0.11c-0.116-0.055-0.165-0.194-0.11-0.31c0.919-2.023,1.747-4.08,2.652-6.105
			c0.39-0.873,0.795-1.739,1.224-2.595c0.903-1.763,1.912-3.484,2.795-5.262c0.372-0.752,0.727-1.513,1.032-2.295
			C245.973,269.64,246.277,267.354,246.95,265.243z"/>
		<path style="fill-rule:evenodd;clip-rule:evenodd;fill:#E58E6B;" d="M341.783,107.052l-0.101-0.465
			c0.436-2.136-1.725-3.065-3.469-2.38c-1.012,0.397-1.538,1.123-1.768,2.038c-0.046-0.403-1.293-1.427-2.68-1.306
			c-2.034,0.177-2.838,2.829-2.88,3.766c-0.048,1.089-0.109,1.43-0.059,2.521c0.074,1.64,0.056,3.31,0.401,4.929
			c0.149,0.699,0.329,1.488,0.794,2.091c0.923,1.199,3.186,1.603,4.276,0.346c0.129-0.149,0.245-0.304,0.35-0.464
			c0.085,0.475,0.207,0.945,0.428,1.363c0.758,1.44,3.112,1.415,4.059,0.213c0.366-0.465,0.565-1.038,0.66-1.643
			c0.072,0.331,0.18,0.648,0.348,0.928c0.178,0.3,0.42,0.566,0.696,0.78c1.822,1.42,3.689-0.223,4.251-2.044
			c0.15-0.487,0.193-0.983,0.197-1.482c0.758,0.93,1.938,1.615,2.911,0.772c0.244-0.213,0.467-0.516,0.629-0.795
			c0.591-1.019,0.65-2.225,0.648-3.378c-0.001-1.415-0.05-2.628-0.653-3.944c-0.618-1.351-2.393-2.171-3.721-1.072l-0.049-0.407
			c-0.025-0.249-0.08-0.497-0.193-0.747c-0.639-1.421-3.104-2.382-4.207-0.983C342.129,106.35,341.936,106.179,341.783,107.052z
			 M154.825,107.052l0.101-0.465c-0.437-2.136,1.724-3.065,3.469-2.38c1.012,0.397,1.537,1.123,1.767,2.038
			c0.047-0.403,1.293-1.427,2.68-1.306c2.034,0.177,2.838,2.829,2.88,3.766c0.049,1.089,0.109,1.43,0.06,2.521
			c-0.075,1.64-0.056,3.31-0.401,4.929c-0.149,0.699-0.33,1.488-0.795,2.091c-0.923,1.199-3.185,1.603-4.276,0.346
			c-0.129-0.149-0.245-0.304-0.349-0.464c-0.085,0.475-0.208,0.945-0.428,1.363c-0.759,1.44-3.113,1.415-4.06,0.213
			c-0.366-0.465-0.565-1.038-0.66-1.643c-0.072,0.331-0.18,0.648-0.347,0.928c-0.178,0.3-0.42,0.566-0.695,0.78
			c-1.822,1.42-3.689-0.223-4.251-2.044c-0.151-0.487-0.194-0.983-0.198-1.482c-0.758,0.93-1.938,1.615-2.911,0.772
			c-0.244-0.213-0.467-0.516-0.629-0.795c-0.591-1.019-0.65-2.225-0.648-3.378c0.002-1.415,0.05-2.628,0.653-3.944
			c0.619-1.351,2.395-2.171,3.722-1.072l0.05-0.407c0.024-0.249,0.079-0.497,0.192-0.747c0.639-1.421,3.104-2.382,4.207-0.983
			C154.478,106.35,154.671,106.179,154.825,107.052z"/>
		<path style="fill-rule:evenodd;clip-rule:evenodd;fill:#406372;" d="M283.517,192.431c-0.274-0.015-0.542-0.049-0.816-0.063
			c-0.633-0.034-1.266-0.041-1.898-0.086c-0.905-0.064-1.809-0.152-2.712-0.247c-0.084-0.009-0.159,0.051-0.167,0.135
			c-0.01,0.084,0.051,0.159,0.135,0.167c1.088,0.118,2.177,0.238,3.27,0.293c0.439,0.022,0.879,0.051,1.317,0.031
			c0.294-0.012,0.583-0.054,0.876-0.092c0.038-0.001,0.068-0.033,0.067-0.072C283.587,192.46,283.556,192.43,283.517,192.431z
			 M215.665,189.003c0.09,0.106,0.162,0.211,0.264,0.305c0.096,0.088,0.208,0.156,0.314,0.23c0.861,0.593,1.767,1.1,2.686,1.574
			c1.717,0.884,3.509,1.606,5.335,2.322c0.063,0.026,0.133-0.004,0.16-0.067c0.026-0.062-0.004-0.133-0.067-0.16
			c-1.491-0.644-2.943-1.319-4.373-2.035c-1.285-0.644-2.469-1.465-3.774-2.112c-0.152-0.076-0.306-0.111-0.465-0.17
			c-0.033-0.022-0.076-0.014-0.098,0.017C215.626,188.939,215.633,188.983,215.665,189.003z M232.636,209.409
			c0.238,0.179,0.471,0.358,0.717,0.519c2.349,1.543,4.835,2.42,7.353,2.978c4.193,0.926,8.571,0.814,13.183,0.704
			c0.072-0.001,0.129-0.061,0.128-0.134c-0.001-0.072-0.061-0.129-0.134-0.128c-4.583,0.055-8.919,0.05-13.088-0.852
			c-2.487-0.538-4.883-1.447-7.311-2.786c-0.255-0.14-0.515-0.271-0.773-0.416c-0.032-0.022-0.075-0.013-0.097,0.02
			C232.594,209.345,232.603,209.387,232.636,209.409z M278.339,229.145c-0.24,0.038-0.479,0.06-0.72,0.107
			c-2.102,0.409-4.236,0.854-6.399,1.003c-2.406,0.167-4.825,0.104-7.165-0.365c-0.076-0.016-0.151,0.033-0.167,0.109
			c-0.016,0.076,0.033,0.151,0.109,0.167c2.361,0.534,4.814,0.714,7.255,0.548c2.188-0.15,4.394-0.471,6.448-1.16
			c0.234-0.078,0.452-0.181,0.678-0.277c0.037-0.01,0.059-0.049,0.049-0.086C278.415,229.156,278.376,229.134,278.339,229.145z
			 M226.044,231.13c2.456,0.404,4.837,0.932,7.22,1.346c1.619,0.281,3.238,0.507,4.868,0.66c2.678,0.25,5.386,0.269,8.193-0.09
			c0.102-0.012,0.176-0.104,0.164-0.207c-0.012-0.102-0.104-0.175-0.206-0.163c-2.075,0.214-4.089,0.201-6.075,0.071
			c-1.898-0.125-3.769-0.38-5.649-0.645c-1.963-0.277-3.933-0.579-5.938-0.834c-0.846-0.107-1.698-0.192-2.56-0.275
			c-0.038-0.005-0.074,0.022-0.078,0.06C225.979,231.09,226.005,231.124,226.044,231.13z M277.009,240.512
			c-0.267,0.002-0.53-0.015-0.798-0.004c-2.349,0.097-4.727,0.194-7.118,0.019c-2.771-0.204-5.547-0.621-8.263-1.065
			c-1.19-0.194-2.371-0.382-3.531-0.578c-0.058-0.011-0.114,0.027-0.124,0.086c-0.011,0.058,0.027,0.113,0.085,0.124
			c1.154,0.238,2.325,0.486,3.512,0.706c2.718,0.502,5.509,0.913,8.293,1.115c2.413,0.174,4.84,0.307,7.18-0.078
			c0.267-0.045,0.521-0.121,0.783-0.186c0.038-0.005,0.064-0.04,0.06-0.078C277.082,240.534,277.047,240.507,277.009,240.512z
			 M220.658,237.023c0.928,0.4,1.856,0.826,2.804,1.229c1.407,0.598,2.842,1.165,4.289,1.669c1.633,0.567,3.29,1.034,4.959,1.346
			c1.245,0.218,2.507,0.328,3.777,0.357c1.885,0.045,3.78-0.077,5.644-0.148c0.087-0.001,0.155-0.073,0.154-0.16
			c-0.001-0.086-0.073-0.155-0.16-0.154c-1.856-0.01-3.743,0.005-5.616-0.096c-1.239-0.066-2.473-0.178-3.686-0.411
			c-1.644-0.296-3.27-0.763-4.886-1.29c-1.45-0.472-2.885-1.008-4.316-1.523c-0.969-0.349-1.937-0.675-2.895-1
			c-0.05-0.018-0.105,0.005-0.124,0.055C220.584,236.948,220.608,237.004,220.658,237.023z M249.876,243.056
			c1.797,0.404,3.615,1.124,5.439,1.619c0.805,0.219,1.611,0.388,2.413,0.482c0.671,0.072,1.346,0.057,2.022-0.004
			c1.524-0.138,3.056-0.505,4.579-0.505c0.1,0,0.182-0.08,0.184-0.181s-0.08-0.184-0.181-0.185c-1.534-0.021-3.083,0.317-4.62,0.444
			c-0.648,0.054-1.294,0.073-1.937,0.002c-0.784-0.078-1.571-0.241-2.363-0.43c-1.84-0.44-3.694-1.053-5.509-1.379
			c-0.037-0.008-0.074,0.017-0.082,0.055C249.814,243.011,249.838,243.048,249.876,243.056z M224.053,247.633
			c0.876-0.012,1.76-0.013,2.65-0.036c3.48-0.089,7.046-0.243,10.583-0.188c2.969,0.047,5.918,0.208,8.778,0.581
			c4.743,0.584,9.392,1.796,14.096,2.652c2.026,0.368,4.062,0.668,6.119,0.83c1.102,0.087,2.219,0.084,3.337,0.037
			c1.662-0.07,3.33-0.238,4.966-0.353c0.086-0.007,0.151-0.08,0.146-0.166c-0.005-0.086-0.079-0.151-0.165-0.145
			c-1.634,0.098-3.3,0.246-4.96,0.298c-1.103,0.034-2.204,0.023-3.29-0.076c-1.36-0.123-2.708-0.308-4.053-0.53
			c-5.398-0.889-10.702-2.389-16.129-3.086c-2.881-0.347-5.851-0.489-8.84-0.501c-3.546-0.015-7.122,0.102-10.602,0.332
			c-0.888,0.059-1.768,0.142-2.642,0.213c-0.039,0.002-0.069,0.035-0.066,0.073C223.982,247.606,224.014,247.635,224.053,247.633z"
			/>
		<path style="fill-rule:evenodd;clip-rule:evenodd;fill:#D97054;" d="M342.66,174.361c0.007-0.03-0.015-0.086-0.094-0.18
			c-0.034,0.02-0.076,0.009-0.096-0.025c-0.02-0.033-0.009-0.075,0.024-0.094c-0.046-0.121-0.085-0.164-0.115-0.171l0.022-0.062
			c0.016-0.049,0.086-0.054,0.128-0.083c0.496-0.32,0.902-0.721,1.234-1.185c0.251-0.351,0.464-0.732,0.641-1.136
			c0.051-0.127,0.197-0.188,0.323-0.137c0.127,0.052,0.188,0.197,0.137,0.324c-0.256,0.679-0.597,1.311-1.06,1.847
			c-0.282,0.326-0.607,0.618-0.986,0.859c-0.028,0.019-0.054,0.059-0.088,0.052L342.66,174.361z M342.66,174.361 M153.552,175.021
			l-0.005,0.001c-0.017,0.004-0.029-0.012-0.046-0.017c-0.051-0.018-0.093-0.025-0.139-0.054c-0.09-0.057-0.152-0.152-0.224-0.232
			c-0.44-0.491-0.781-1.075-1.097-1.644c-0.08-0.147-0.027-0.331,0.119-0.413c0.147-0.081,0.331-0.027,0.413,0.12
			c0.328,0.595,0.76,1.145,1.166,1.701c0.045,0.06,0.102,0.113,0.1,0.187v0.037c-0.02,0.006-0.049,0.034-0.092,0.101
			c0.028,0.025,0.03,0.07,0.005,0.098c-0.026,0.028-0.069,0.031-0.099,0.005C153.616,174.949,153.582,174.986,153.552,175.021z"/>
		<path style="fill-rule:evenodd;clip-rule:evenodd;" d="M262.919,118.769c0.013,0.013,0.035,0.035,0.07,0.065
			c0.029,0.026,0.021,0.074,0.03,0.114c0.115,0.472,0.169,0.988,0.084,1.514c-0.144,0.885-0.66,1.694-1.266,2.241
			c-0.145,0.127-0.302,0.249-0.47,0.355c-0.169,0.108-0.346,0.203-0.526,0.277c-0.953,0.393-1.929,0.278-2.746-0.185
			c-0.772-0.438-1.405-1.171-1.717-2.027c-0.136-0.371-0.219-0.75-0.233-1.137c-0.013-0.374,0.035-0.745,0.091-1.118
			c0.005-0.097,0.089-0.171,0.185-0.164c0.097,0.005,0.171,0.088,0.165,0.185c0.009,0.421,0.054,0.836,0.137,1.244
			c0.052,0.258,0.117,0.514,0.226,0.761c0.301,0.683,0.853,1.252,1.506,1.569c0.616,0.297,1.329,0.35,2.004,0.019l0.695-0.509
			c0.225-0.22,0.406-0.499,0.556-0.802c0.145-0.298,0.229-0.628,0.33-0.95c0.045-0.142,0.105-0.276,0.152-0.416
			c0.101-0.305,0.165-0.593,0.242-0.88c0.007-0.024,0.008-0.046,0.025-0.062c0.036-0.033,0.056-0.053,0.067-0.065l0.001-0.002
			c0.009-0.013,0.021-0.021-0.001,0.002c-0.012,0.021-0.014,0.052,0.114,0.011c-0.002-0.04,0.028-0.076,0.069-0.079
			c0.04-0.003,0.076,0.027,0.079,0.068C262.916,118.82,262.928,118.79,262.919,118.769c-0.034-0.035-0.01-0.022-0.001-0.001
			L262.919,118.769z M239.605,118.958c0.011,0.012,0.032,0.033,0.067,0.066c0.017,0.016,0.02,0.038,0.026,0.062
			c0.076,0.286,0.14,0.575,0.241,0.879c0.047,0.141,0.107,0.274,0.152,0.417c0.101,0.321,0.185,0.653,0.331,0.949
			c0.149,0.304,0.33,0.582,0.555,0.802l0.695,0.509c0.674,0.33,1.388,0.278,2.004-0.02c0.654-0.316,1.206-0.886,1.506-1.569
			c0.109-0.246,0.175-0.502,0.227-0.76c0.083-0.409,0.127-0.823,0.137-1.244c-0.007-0.097,0.067-0.18,0.164-0.186
			c0.097-0.005,0.179,0.068,0.185,0.164c0.058,0.373,0.104,0.744,0.091,1.117c-0.013,0.387-0.097,0.767-0.234,1.138
			c-0.312,0.856-0.945,1.59-1.716,2.026c-0.819,0.464-1.794,0.578-2.747,0.185c-0.179-0.074-0.355-0.169-0.526-0.277
			c-0.167-0.106-0.326-0.228-0.469-0.354c-0.607-0.547-1.123-1.357-1.267-2.243c-0.086-0.525-0.031-1.04,0.084-1.514
			c0.01-0.039,0.001-0.087,0.031-0.114c0.035-0.03,0.057-0.051,0.07-0.065v-0.001c0.009-0.02,0.033-0.034,0,0.001
			c-0.01,0.023,0.002,0.051,0.13,0.032c0.003-0.041,0.039-0.072,0.08-0.07c0.04,0.003,0.072,0.039,0.068,0.08
			C239.619,119.01,239.617,118.978,239.605,118.958c-0.021-0.023-0.009-0.015-0.001-0.001L239.605,118.958z M255.352,127.848
			c-0.012-0.011-0.022-0.02-0.028-0.023l-0.619-0.5c-0.32-0.301-0.6-0.628-0.847-0.982c-0.242-0.346-0.447-0.719-0.646-1.099
			c-0.397-0.815-0.714-1.674-0.937-2.56c-0.223-0.876-0.353-1.775-0.44-2.664c-0.072-0.916-0.093-1.84,0.054-2.738
			c0.09-0.543,0.228-1.077,0.457-1.589c0.012-0.028,0.015-0.063,0.039-0.082c0.074-0.061,0.062-0.018,0.154-0.041
			c0.014-0.038,0.058-0.059,0.096-0.045c0.039,0.014,0.059,0.058,0.044,0.096c0.039,0.081,0.074,0.079,0.086,0.168
			c0.023,0.174-0.055,0.34-0.085,0.51c-0.085,0.493-0.15,0.984-0.161,1.481c-0.015,0.714,0.051,1.43,0.16,2.143
			c0.11,0.845,0.281,1.693,0.501,2.527c0.217,0.824,0.483,1.635,0.845,2.402c0.19,0.434,0.397,0.854,0.642,1.251
			c0.161,0.261,0.33,0.516,0.531,0.754l0.457,0.471c0.04,0.03,0.149,0.092,0.203,0.149c0.07,0.073,0.1,0.154,0.105,0.229
			c0.037,0.223-0.038,0.468-0.176,0.703c-0.153,0.261-0.406,0.49-0.563,0.652c-0.599,0.617-1.29,1.166-2.079,1.442
			c-0.541,0.189-1.122,0.244-1.724,0.161c-0.167-0.013-0.292-0.161-0.278-0.328c0.014-0.166,0.161-0.291,0.328-0.277
			c0.632,0.026,1.201-0.159,1.734-0.427c0.546-0.275,1.057-0.645,1.503-1.085c0.117-0.114,0.283-0.277,0.432-0.446
			C255.217,128.014,255.305,127.935,255.352,127.848z M244.347,133.017c0.021,0.016,0.066,0.007,0.161-0.09
			c-0.023-0.034-0.014-0.08,0.02-0.103c0.034-0.024,0.08-0.015,0.104,0.018c0.289-0.096-0.055-0.158,0.24-0.081
			c0.089,0.024,0.128,0.131,0.189,0.202c0.656,0.755,1.375,1.499,2.207,2.09c0.607,0.433,1.255,0.801,1.941,1.055l2.305,0.608
			c0.136-0.021,0.263,0.073,0.283,0.207c0.022,0.136-0.072,0.263-0.207,0.283c-0.149,0.087-0.27,0.156-0.435,0.203
			c-0.223,0.063-0.457,0.049-0.69,0.036c-0.556-0.031-1.101-0.208-1.62-0.4c-1.127-0.459-2.17-1.182-3.058-2.057
			c-0.367-0.362-0.725-0.735-1.018-1.151c-0.127-0.181-0.235-0.371-0.341-0.564c-0.031-0.058-0.101-0.109-0.091-0.173
			C244.342,133.068,244.345,133.039,244.347,133.017v-0.001C244.309,132.984,244.364,132.852,244.347,133.017z M246.177,143.775
			c0.054,0.128,0.071,0.226,0.152,0.336c0.028,0.039,0.071,0.064,0.107,0.095c0.498,0.419,1.034,0.763,1.598,1.039
			c1.052,0.516,2.207,0.788,3.436,0.918c0.522,0.053,1.048,0.083,1.57,0.053c0.354-0.021,0.707-0.07,1.057-0.155
			c0.488-0.122,0.97-0.314,1.424-0.568c0.436-0.244,0.84-0.541,1.248-0.798c0.08-0.043,0.112-0.144,0.068-0.225
			c-0.043-0.082-0.144-0.113-0.226-0.07c-0.599,0.277-1.225,0.589-1.858,0.834c-0.263,0.102-0.523,0.198-0.792,0.259
			c-0.395,0.091-0.795,0.129-1.196,0.133c-0.41,0.004-0.821-0.026-1.23-0.072c-0.768-0.083-1.499-0.238-2.198-0.459
			c-0.852-0.27-1.645-0.662-2.411-1.165c-0.094-0.061-0.18-0.138-0.284-0.182c-0.128-0.055-0.234-0.05-0.37-0.086
			c-0.031-0.026-0.078-0.022-0.104,0.01C246.141,143.703,246.146,143.749,246.177,143.775z"/>
		<path style="fill-rule:evenodd;clip-rule:evenodd;fill:#293D45;" d="M261.319,90.432c-0.207,0.111-0.412,0.194-0.605,0.319
			c-1.767,1.14-3.228,2.401-4.924,3.481c-1.183,0.769-2.409,1.463-3.659,2.112c-0.939,0.488-1.899,0.937-2.856,1.39
			c-0.96,0.456-1.916,0.918-2.883,1.353c-0.072,0.029-0.106,0.111-0.077,0.183c0.029,0.072,0.112,0.107,0.184,0.076
			c0.834-0.305,1.669-0.608,2.491-0.949c0.821-0.341,1.629-0.716,2.429-1.104c1.604-0.779,3.163-1.645,4.66-2.617
			c1.325-0.876,2.581-1.757,3.845-2.751c0.366-0.288,0.761-0.553,1.099-0.896c0.148-0.149,0.256-0.316,0.39-0.483
			c0.031-0.025,0.037-0.073,0.011-0.104S261.351,90.406,261.319,90.432z M240,99.971c0.078-0.068,0.158-0.118,0.23-0.194
			c0.595-0.626,1.104-1.339,1.722-1.959c0.689-0.693,1.417-1.351,2.138-1.979c0.958-0.848,1.94-1.654,2.966-2.399
			c1.021-0.743,2.084-1.426,3.221-2.01l7.086-3.379c0.051-0.023,0.074-0.084,0.051-0.135c-0.023-0.052-0.084-0.075-0.135-0.052
			c-1.127,0.457-2.4,0.931-3.656,1.452c-1.259,0.523-2.497,1.095-3.587,1.644c-1.164,0.595-2.256,1.284-3.296,2.047
			c-1.035,0.76-2.018,1.595-2.979,2.465c-0.854,0.785-1.723,1.606-2.506,2.494c-0.473,0.536-1.001,1.047-1.306,1.683
			c-0.037,0.078-0.048,0.154-0.073,0.238c-0.023,0.034-0.014,0.08,0.021,0.103C239.931,100.013,239.978,100.005,240,99.971z
			 M272.435,88.137c-0.279,0.388-0.6,0.733-0.92,1.093c-0.208,0.236-0.413,0.476-0.627,0.709c-0.541,0.589-1.111,1.156-1.671,1.702
			c-1.796,1.79-3.774,3.289-5.896,4.551c-2.124,1.264-4.395,2.288-6.787,3.104c-0.942,0.326-1.902,0.642-2.864,0.944
			c-0.958,0.302-1.915,0.591-2.898,0.75c-0.088,0.01-0.152,0.09-0.141,0.179c0.011,0.088,0.091,0.152,0.179,0.141
			c0.817-0.052,1.63-0.16,2.431-0.346c1.189-0.278,2.346-0.705,3.489-1.088c2.435-0.827,4.75-1.86,6.909-3.149
			c2.162-1.291,4.167-2.839,5.99-4.673c0.665-0.685,1.379-1.368,1.959-2.149c0.393-0.53,0.707-1.101,0.975-1.694
			c0.021-0.036,0.008-0.081-0.028-0.102C272.501,88.089,272.456,88.101,272.435,88.137z"/>
		<path style="fill-rule:evenodd;clip-rule:evenodd;fill:#3B1D07;" d="M247.658,114.753c0.07-0.202,0.12-0.021,0.074-0.229
			c-0.063-0.282-0.403-0.408-0.636-0.581c-0.58-0.429-1.255-0.72-1.853-1.056c-1.192-0.636-2.587-1.324-4.017-1.597
			c-0.797-0.153-1.617-0.242-2.374-0.033c-0.201,0.056-0.372,0.147-0.558,0.243c-0.119,0.03-0.192,0.151-0.163,0.27
			c0.03,0.118,0.151,0.191,0.27,0.162c0.177,0,0.336,0.033,0.512,0.036c0.164,0.003,0.327-0.007,0.492-0.004
			c0.759,0.005,1.526,0.15,2.281,0.377c1.112,0.334,2.197,0.83,3.143,1.327c0.535,0.275,1.102,0.56,1.664,0.851
			c0.231,0.119,0.465,0.221,0.686,0.354c0.066,0.039,0.118,0.119,0.194,0.118c0.283-0.002-0.05,0.029,0.187-0.127
			c0.03,0.027,0.078,0.024,0.105-0.007C247.692,114.827,247.69,114.78,247.658,114.753z M255.699,115.17
			c0.237,0.156-0.097,0.125,0.187,0.127c0.076,0.001,0.128-0.079,0.194-0.118c0.222-0.132,0.455-0.234,0.685-0.354
			c0.562-0.291,1.129-0.578,1.665-0.851c0.946-0.497,2.031-0.993,3.143-1.327c0.756-0.227,1.522-0.371,2.281-0.378
			c0.165-0.001,0.328,0.009,0.492,0.005c0.176-0.004,0.334-0.036,0.511-0.036c0.119,0.029,0.24-0.043,0.269-0.163
			c0.03-0.118-0.042-0.24-0.162-0.269c-0.186-0.097-0.357-0.187-0.558-0.243c-0.757-0.21-1.578-0.12-2.374,0.033
			c-1.431,0.274-2.824,0.96-4.017,1.597c-0.597,0.336-1.274,0.627-1.854,1.056c-0.232,0.173-0.572,0.299-0.635,0.581
			c-0.047,0.208,0.003,0.027,0.074,0.229c-0.031,0.027-0.035,0.074-0.008,0.105C255.62,115.194,255.668,115.197,255.699,115.17z"/>
		<path style="fill-rule:evenodd;clip-rule:evenodd;" d="M268.506,123.23c-0.185,0.162-0.36,0.336-0.519,0.521
			c-0.007,0.009-0.013,0.016-0.021,0.024c-0.003,0.004-0.007,0.009-0.01,0.012c-0.006,0.007-0.011,0.012-0.016,0.019
			c-0.01,0.011-0.02,0.022-0.029,0.034c-0.025,0.029-0.049,0.061-0.073,0.091c-0.106,0.144-0.195,0.301-0.287,0.455
			c-0.064,0.11-0.13,0.218-0.204,0.321c-0.021,0.029-0.042,0.059-0.064,0.086c-0.007,0.009-0.012,0.016-0.018,0.024
			c-0.008,0.009-0.015,0.017-0.024,0.026c-0.016,0.016-0.036,0.03-0.055,0.045c-0.011,0.008-0.023,0.016-0.034,0.025
			c-0.003,0.002-0.007,0.006-0.01,0.008l-0.004,0.003c0,0.001-0.001,0.001-0.001,0.002c0,0.001-0.001,0.002-0.002,0.003
			c-0.001,0.003-0.004,0.007-0.007,0.01c-0.011,0.013-0.025,0.022-0.041,0.025c-0.009,0.002-0.016,0.002-0.025,0.001
			c-0.007-0.001-0.013-0.002-0.02-0.006c-0.008-0.002-0.014-0.007-0.02-0.012c-0.015-0.012-0.024-0.03-0.026-0.049
			c-0.001-0.009,0-0.018,0.002-0.027c0.001-0.003,0.002-0.007,0.003-0.01c0.001-0.001,0.001-0.002,0.001-0.002
			c0-0.001,0.001-0.001,0.001-0.001c0-0.001-0.001-0.001-0.001-0.002c-0.001-0.001-0.001-0.003-0.002-0.004
			c-0.002-0.005-0.004-0.011-0.008-0.015c-0.004-0.009-0.01-0.015-0.014-0.024c-0.003-0.008-0.004-0.014-0.004-0.022
			c-0.001-0.01,0-0.02,0.001-0.03c0.001-0.018,0.004-0.038,0.009-0.057c0.02-0.076,0.06-0.146,0.101-0.212
			c0.027-0.042,0.055-0.085,0.081-0.128c0.009-0.014,0.017-0.028,0.025-0.043c0.009-0.015,0.016-0.03,0.024-0.046
			c0.012-0.023,0.024-0.046,0.037-0.067c0.085-0.158,0.179-0.312,0.282-0.458c0.03-0.043,0.063-0.087,0.096-0.129
			c0.012-0.015,0.023-0.029,0.035-0.045c0.005-0.008,0.011-0.014,0.017-0.022c0-0.001,0.011-0.012,0.011-0.012
			c0.008-0.009,0.015-0.017,0.022-0.025c0.021-0.023,0.041-0.046,0.062-0.068c0.065-0.071,0.133-0.14,0.202-0.207
			c0.227-0.224,0.472-0.428,0.733-0.611c0.233-0.165,0.478-0.314,0.732-0.444c0.371-0.191,0.76-0.346,1.155-0.476
			c0.114-0.038,0.229-0.073,0.344-0.106c0.062-0.017,0.125-0.035,0.187-0.052c0.042-0.011,0.084-0.023,0.126-0.034l0.047-0.012
			c0.002,0,0.005-0.001,0.009-0.002c0.011-0.001,0.022,0,0.031,0.004c0.008,0.002,0.014,0.007,0.02,0.011
			c0.004,0.004,0.009,0.01,0.012,0.015c0.003,0.006,0.005,0.012,0.008,0.017c0.004,0.021-0.001,0.042-0.015,0.058
			c-0.005,0.005-0.012,0.01-0.018,0.013c-0.003,0.001-0.007,0.002-0.01,0.003c-0.004,0.002-0.01,0.004-0.014,0.006
			c-0.02,0.008-0.04,0.014-0.06,0.022c-0.054,0.019-0.109,0.04-0.162,0.061c-0.164,0.064-0.325,0.131-0.484,0.203
			c-0.21,0.094-0.416,0.197-0.618,0.306c-0.165,0.089-0.328,0.182-0.489,0.28c-0.188,0.115-0.372,0.238-0.552,0.367l-0.007,0.004
			c0.197-0.071,0.393-0.116,0.594-0.134c0.539-0.047,1.081,0.093,1.63,0.282c0.071,0.024,0.11,0.1,0.086,0.172
			c-0.023,0.071-0.1,0.11-0.171,0.086c-0.431-0.134-0.855-0.206-1.273-0.228c-0.419-0.023-0.837,0.004-1.267,0.169
			c-0.014,0.007-0.029,0.009-0.043,0.005L268.506,123.23z M233.508,123.331c-0.135-0.167-0.275-0.33-0.418-0.49
			c-0.041-0.046-0.084-0.091-0.125-0.136c-0.027-0.029-0.053-0.058-0.08-0.086c-0.084-0.087-0.171-0.173-0.258-0.257
			c-0.076-0.074-0.153-0.149-0.229-0.225c-0.092-0.092-0.182-0.188-0.274-0.281c-0.093-0.096-0.187-0.19-0.285-0.28
			c-0.061-0.056-0.123-0.112-0.187-0.166c-0.011-0.01-0.023-0.02-0.035-0.028c-0.007-0.007-0.014-0.012-0.021-0.017
			c-0.002-0.002-0.004-0.003-0.006-0.004c-0.003-0.002-0.008-0.006-0.011-0.009c-0.014-0.012-0.025-0.026-0.034-0.042
			c-0.008-0.015-0.012-0.032-0.014-0.048c-0.002-0.016-0.001-0.031,0.003-0.048c0.002-0.013,0.008-0.025,0.014-0.037
			c0.008-0.013,0.016-0.024,0.027-0.034c0.028-0.026,0.067-0.039,0.105-0.036c0.014,0.001,0.028,0.004,0.042,0.01
			c0.004,0.002,0.009,0.004,0.014,0.007c0.002,0.001,0.003,0.003,0.005,0.004c0.008,0.003,0.016,0.008,0.024,0.011
			c0.038,0.02,0.076,0.039,0.115,0.059c0.086,0.045,0.172,0.089,0.256,0.137c0.269,0.149,0.529,0.315,0.767,0.51
			c0.186,0.153,0.355,0.324,0.514,0.505c0.232,0.267,0.437,0.557,0.63,0.854c0.091,0.141,0.18,0.285,0.268,0.428
			c0.034,0.053,0.066,0.108,0.099,0.162c0.001,0.001,0.039,0.064,0.04,0.065l0.016,0.028c0.012,0.022,0.025,0.044,0.037,0.065
			c0.085,0.141,0.177,0.278,0.261,0.42c0.057,0.096,0.11,0.193,0.153,0.295c0.013,0.029,0.025,0.06,0.036,0.089
			c0.008,0.024,0.016,0.047,0.023,0.071c0.012,0.046,0.021,0.091,0.027,0.138c0.004,0.032,0.009,0.064,0.012,0.097
			c0.001,0.003,0.001,0.007,0.001,0.009c0,0.001,0.001,0.002,0.001,0.002c0,0.001,0.001,0.002,0.001,0.003
			c0.001,0.003,0.002,0.007,0.002,0.01c0.002,0.011,0.002,0.022-0.001,0.033c-0.002,0.008-0.005,0.016-0.01,0.023
			c-0.004,0.007-0.01,0.012-0.015,0.017c-0.006,0.003-0.011,0.006-0.017,0.01c-0.022,0.01-0.048,0.008-0.068-0.005
			c-0.008-0.004-0.014-0.011-0.02-0.017c-0.003-0.003-0.005-0.008-0.008-0.011c-0.001-0.002-0.001-0.003-0.002-0.004
			c0-0.001,0-0.001,0-0.002c-0.267-0.343-0.534-0.685-0.801-1.028c-0.003-0.004-0.005-0.008-0.009-0.012
			c-0.009-0.013-0.017-0.025-0.026-0.037c-0.023-0.034-0.046-0.066-0.069-0.099c-0.072-0.1-0.144-0.2-0.219-0.299l-0.001-0.001
			c-0.413-0.16-0.821-0.224-1.24-0.276c-0.275-0.034-0.552-0.074-0.845-0.071c-0.083,0.004-0.153-0.06-0.157-0.142
			c-0.003-0.084,0.061-0.154,0.143-0.158c0.394-0.031,0.775-0.04,1.139,0.046c0.248,0.059,0.481,0.159,0.71,0.281L233.508,123.331z"
			/>
		<path style="fill-rule:evenodd;clip-rule:evenodd;fill:#E8A284;" d="M348.967,114.283c0,0,0.402-0.207,1.122-0.014
			c0.215,0.058,0.527,0.102,0.674,0.294c0.109,0.141,0.079,0.37,0.068,0.533c-0.029,0.4-0.145,0.925-0.545,1.12
			c-0.435,0.211-0.958-0.101-1.207-0.452c-0.131-0.183-0.203-0.393-0.239-0.614C348.792,114.854,348.875,114.563,348.967,114.283z
			 M148.006,114.283c0,0-0.403-0.207-1.122-0.014c-0.215,0.058-0.527,0.102-0.674,0.294c-0.109,0.141-0.079,0.37-0.068,0.533
			c0.029,0.4,0.144,0.925,0.545,1.12c0.434,0.211,0.958-0.101,1.208-0.452c0.131-0.183,0.203-0.393,0.239-0.614
			C148.181,114.854,148.098,114.563,148.006,114.283z M332.824,114.772c0,0,0.492-0.252,1.37-0.016
			c0.263,0.071,0.643,0.124,0.823,0.359c0.133,0.172,0.098,0.452,0.084,0.65c-0.035,0.488-0.177,1.131-0.667,1.368
			c-0.53,0.256-1.169-0.124-1.475-0.552c-0.159-0.224-0.248-0.48-0.29-0.749C332.611,115.471,332.711,115.115,332.824,114.772z
			 M164.149,114.772c0,0-0.492-0.252-1.37-0.016c-0.263,0.071-0.643,0.124-0.823,0.359c-0.133,0.172-0.098,0.452-0.084,0.65
			c0.035,0.488,0.177,1.131,0.666,1.368c0.531,0.256,1.17-0.124,1.475-0.552c0.16-0.224,0.247-0.48,0.291-0.749
			C164.362,115.471,164.262,115.115,164.149,114.772z M338.544,116.342c0,0,0.491-0.253,1.37-0.017
			c0.263,0.071,0.643,0.125,0.823,0.359c0.133,0.173,0.097,0.452,0.083,0.65c-0.035,0.489-0.176,1.132-0.666,1.368
			c-0.53,0.257-1.17-0.124-1.475-0.552c-0.16-0.223-0.248-0.48-0.291-0.749C338.331,117.04,338.431,116.684,338.544,116.342z
			 M158.428,116.342c0,0-0.491-0.253-1.37-0.017c-0.263,0.071-0.643,0.125-0.823,0.359c-0.133,0.173-0.097,0.452-0.083,0.65
			c0.035,0.489,0.176,1.132,0.666,1.368c0.53,0.257,1.17-0.124,1.475-0.552c0.16-0.223,0.248-0.48,0.291-0.749
			C158.641,117.04,158.541,116.684,158.428,116.342z M343.84,116.44c0,0,0.491-0.253,1.37-0.016
			c0.263,0.071,0.643,0.124,0.823,0.358c0.133,0.173,0.097,0.453,0.083,0.651c-0.035,0.488-0.176,1.131-0.666,1.367
			c-0.53,0.257-1.17-0.123-1.475-0.551c-0.16-0.224-0.248-0.48-0.291-0.75C343.628,117.139,343.727,116.783,343.84,116.44z
			 M153.132,116.44c0,0-0.492-0.253-1.37-0.016c-0.263,0.071-0.643,0.124-0.823,0.358c-0.133,0.173-0.097,0.453-0.083,0.651
			c0.034,0.488,0.176,1.131,0.666,1.367c0.53,0.257,1.169-0.123,1.475-0.551c0.159-0.224,0.248-0.48,0.291-0.75
			C153.345,117.139,153.245,116.783,153.132,116.44z"/>
		<path style="fill-rule:evenodd;clip-rule:evenodd;fill:#D97054;" d="M349.883,117.266c-0.042,0.114,0.047,0.053-0.05,0.124
			c-0.059,0.044-0.144,0.009-0.214,0.007c-0.936-0.034-1.509-0.627-1.835-1.414c-0.471-1.141-0.398-2.754-0.338-3.74l0.176-1.272
			c0.007-0.064,0.063-0.111,0.127-0.104c0.063,0.005,0.11,0.062,0.104,0.126l-0.025,1.268c-0.037,0.938-0.063,2.461,0.384,3.545
			c0.261,0.632,0.69,1.096,1.438,1.18c0.057,0.007,0.128-0.017,0.179,0.019c0.096,0.068,0.001,0.013,0.049,0.123
			c0.038-0.001,0.071,0.028,0.072,0.067C349.952,117.232,349.921,117.265,349.883,117.266z M147.089,117.266
			c0.042,0.114-0.047,0.053,0.05,0.124c0.059,0.044,0.144,0.009,0.213,0.007c0.937-0.034,1.51-0.627,1.836-1.414
			c0.471-1.141,0.398-2.754,0.338-3.74l-0.176-1.272c-0.007-0.064-0.063-0.111-0.127-0.104c-0.063,0.005-0.111,0.062-0.104,0.126
			l0.025,1.268c0.037,0.938,0.063,2.461-0.384,3.545c-0.261,0.632-0.691,1.096-1.438,1.18c-0.058,0.007-0.128-0.017-0.179,0.019
			c-0.096,0.068-0.001,0.013-0.049,0.123c-0.038-0.001-0.071,0.028-0.072,0.067C147.021,117.232,147.051,117.265,147.089,117.266z
			 M332.37,116.827c0.121,0.454,0.477,1.054,0.934,1.405c0.269,0.207,0.578,0.32,0.909,0.195c0.253-0.097,0.451-0.257,0.636-0.43
			c0.3-0.281,0.553-0.618,0.759-0.979c0.05-0.099,0.169-0.138,0.268-0.089c0.099,0.05,0.138,0.169,0.089,0.268
			c-0.151,0.36-0.318,0.725-0.569,1.02c-0.266,0.312-0.616,0.537-1.032,0.661c-0.496,0.147-0.952-0.01-1.312-0.352
			c-0.461-0.439-0.757-1.159-0.82-1.672c-0.008-0.038,0.017-0.075,0.054-0.081C332.325,116.765,332.362,116.79,332.37,116.827z
			 M164.603,116.827c-0.12,0.454-0.477,1.054-0.934,1.405c-0.269,0.207-0.578,0.32-0.909,0.195c-0.253-0.097-0.451-0.257-0.636-0.43
			c-0.3-0.281-0.553-0.618-0.759-0.979c-0.05-0.099-0.169-0.138-0.268-0.089c-0.099,0.05-0.138,0.169-0.089,0.268
			c0.151,0.36,0.318,0.725,0.569,1.02c0.266,0.312,0.616,0.537,1.032,0.661c0.496,0.147,0.952-0.01,1.312-0.352
			c0.462-0.439,0.757-1.159,0.82-1.672c0.008-0.038-0.017-0.075-0.055-0.081C164.648,116.765,164.611,116.79,164.603,116.827z
			 M346.38,119.426c-0.009,0.005-0.023,0-0.049-0.041c0.028-0.026,0.03-0.071,0.004-0.099c-0.026-0.028-0.071-0.029-0.099-0.003
			c-0.101-0.065,0.046-0.052-0.073-0.049c-0.063,0.001-0.103,0.065-0.153,0.097c-0.534,0.334-1.132,0.304-1.672,0.062
			c-0.607-0.271-1.139-0.794-1.333-1.385c-0.365-1.093-0.475-2.253-0.473-3.429c0.002-1.783,0.271-3.604,0.471-5.286
			c0.011-0.081-0.047-0.156-0.128-0.168c-0.081-0.011-0.156,0.047-0.168,0.128c-0.261,1.691-0.624,3.521-0.661,5.322
			c-0.026,1.23,0.106,2.446,0.484,3.591c0.286,0.86,1.141,1.648,2.075,1.832c0.572,0.113,1.183,0.021,1.653-0.412
			c0.042-0.039,0.114-0.067,0.118-0.126L346.38,119.426C346.392,119.417,346.387,119.379,346.38,119.426z M150.592,119.426
			c0.008,0.005,0.023,0,0.048-0.041c-0.027-0.026-0.029-0.071-0.003-0.099c0.026-0.028,0.071-0.029,0.099-0.003
			c0.1-0.065-0.046-0.052,0.073-0.049c0.063,0.001,0.103,0.065,0.153,0.097c0.534,0.334,1.132,0.304,1.672,0.062
			c0.606-0.271,1.139-0.794,1.333-1.385c0.365-1.093,0.475-2.253,0.473-3.429c-0.002-1.783-0.271-3.604-0.471-5.286
			c-0.011-0.081,0.047-0.156,0.128-0.168c0.081-0.011,0.156,0.047,0.168,0.128c0.261,1.691,0.624,3.521,0.661,5.322
			c0.026,1.23-0.106,2.446-0.484,3.591c-0.286,0.86-1.141,1.648-2.075,1.832c-0.572,0.113-1.183,0.021-1.653-0.412
			c-0.042-0.039-0.114-0.067-0.118-0.126L150.592,119.426C150.58,119.417,150.586,119.379,150.592,119.426z M341.58,118.87
			c-0.027,0.241-0.099,0.455-0.223,0.639c-0.197,0.294-0.508,0.489-0.844,0.601c-0.539,0.18-1.171,0.109-1.685-0.194
			c-0.322-0.195-0.589-0.471-0.812-0.787c-0.316-0.445-0.545-0.971-0.731-1.445c-0.263-0.673-0.369-1.344-0.382-2.017
			c-0.02-0.99,0.163-1.985,0.325-3l0.556-3.415c0.013-0.081,0.091-0.137,0.173-0.123c0.082,0.014,0.138,0.091,0.124,0.173
			l-0.505,3.418c-0.143,0.995-0.31,1.969-0.277,2.936c0.021,0.626,0.126,1.248,0.38,1.871c0.179,0.441,0.398,0.93,0.699,1.342
			c0.191,0.262,0.416,0.492,0.687,0.651c0.401,0.242,0.891,0.283,1.322,0.166c0.267-0.072,0.507-0.206,0.706-0.399
			c0.137-0.13,0.265-0.267,0.354-0.455c0.01-0.037,0.049-0.059,0.086-0.049C341.57,118.794,341.591,118.833,341.58,118.87z
			 M155.392,118.87c0.027,0.241,0.099,0.455,0.223,0.639c0.195,0.294,0.508,0.489,0.843,0.601c0.54,0.18,1.172,0.109,1.687-0.194
			c0.321-0.195,0.589-0.471,0.812-0.787c0.315-0.445,0.545-0.971,0.731-1.445c0.263-0.673,0.369-1.344,0.382-2.017
			c0.02-0.99-0.163-1.985-0.325-3l-0.556-3.415c-0.014-0.081-0.091-0.137-0.173-0.123c-0.083,0.014-0.138,0.091-0.124,0.173
			l0.505,3.418c0.143,0.995,0.309,1.969,0.277,2.936c-0.021,0.626-0.126,1.248-0.38,1.871c-0.179,0.441-0.399,0.93-0.699,1.342
			c-0.191,0.262-0.416,0.492-0.687,0.651c-0.401,0.242-0.891,0.283-1.322,0.166c-0.267-0.072-0.507-0.206-0.706-0.399
			c-0.137-0.13-0.265-0.267-0.354-0.455c-0.01-0.037-0.049-0.059-0.086-0.049C155.403,118.794,155.381,118.833,155.392,118.87z"/>
	</g>
</g>
</svg>
